<?xml version="1.0" standalone="no"?>
<!DOCTYPE svg PUBLIC "-//W3C//DTD SVG 1.1//EN" "http://www.w3.org/Graphics/SVG/1.1/DTD/svg11.dtd" >
<svg xmlns="http://www.w3.org/2000/svg" xmlns:xlink="http://www.w3.org/1999/xlink" version="1.1">
<metadata>
Created by FontForge 20170731 at Wed May 22 18:26:40 2019
 By Aleksey,,,
Copyright (c) 2019 by David Kerkhoff. All rights reserved.
</metadata>
<defs>
<font id="KuronekoDEMO-Regular" horiz-adv-x="513" >
  <font-face 
    font-family="Kuroneko DEMO"
    font-weight="400"
    font-stretch="normal"
    units-per-em="1000"
    panose-1="0 0 0 0 0 0 0 0 0 0"
    ascent="800"
    descent="-200"
    x-height="600"
    cap-height="631"
    bbox="17 -165 816 963"
    underline-thickness="0"
    underline-position="0"
    unicode-range="U+000D-20AC"
  />
<missing-glyph horiz-adv-x="592" 
d="M112 128v12q5 37 5 39q2 12 16 61q75 211 81 233q1 3 1 9q0 3 -2 3h-2q-74 12 -102 36.5t-40 94.5v1q9 9 9 17q0 11 -9.5 16.5t-10.5 10.5q-1 4 -3 12.5t-3 14.5l-2 7v5l66 -58q3 -3 4 -3h2q50 28 113 28q68 0 111 -31l3 2l67 58v-5q-10 -56 -27 -96t-32 -60t-37.5 -32
t-34 -14.5t-31.5 -4.5q-2 0 -4.5 -0.5t-3.5 -0.5v-2v-1q3 -12 3 -15l102 -240q25 -58 23 -127q24 20 24 75q0 47 -15 71l-53 99q-16 28 -16 71q0 52 39 83.5t94 37.5q40 0 67.5 -23.5t27.5 -62.5q0 -31 -21 -49t-53 -18q-24 0 -44 13t-20 36q0 21 17.5 36t39.5 15
q7 0 12 -5.5t5 -13.5q0 -12 -17.5 -18t-17.5 -13q0 -12 25 -12q30 0 35 18v10q0 23 -15.5 36t-39.5 13q-41 0 -68.5 -22t-27.5 -61q0 -18 6 -37t11.5 -30.5t19 -33.5t17.5 -30q30 -54 30 -107q0 -38 -12 -66q-16 -36 -49 -65.5t-71 -40.5l-16 -4h-53q-15 0 -39 12
q-44 21 -64 46.5t-20 69.5zM156 566q1 -3 17 -3q25 0 25 5t-11 16.5t-17 11.5h-1q-1 -18 -13 -30zM257 568q0 -5 25 -5h10l5 2v1q-12 15 -13 30q-7 -3 -17 -12.5t-10 -15.5zM151 569q-1 0 -1 -1.5t1 -1.5t1 1.5t-1 1.5zM290 599q12 -10 13 -32q7 2 18.5 13t11.5 17
q0 5 -25 5q-14 0 -18 -3zM122 597q0 -5 11 -16.5t16 -11.5h1q1 17 13 30v1q-5 1 -6 2h-10q-25 0 -25 -5z" />
    <glyph glyph-name=".notdef" horiz-adv-x="592" 
d="M112 128v12q5 37 5 39q2 12 16 61q75 211 81 233q1 3 1 9q0 3 -2 3h-2q-74 12 -102 36.5t-40 94.5v1q9 9 9 17q0 11 -9.5 16.5t-10.5 10.5q-1 4 -3 12.5t-3 14.5l-2 7v5l66 -58q3 -3 4 -3h2q50 28 113 28q68 0 111 -31l3 2l67 58v-5q-10 -56 -27 -96t-32 -60t-37.5 -32
t-34 -14.5t-31.5 -4.5q-2 0 -4.5 -0.5t-3.5 -0.5v-2v-1q3 -12 3 -15l102 -240q25 -58 23 -127q24 20 24 75q0 47 -15 71l-53 99q-16 28 -16 71q0 52 39 83.5t94 37.5q40 0 67.5 -23.5t27.5 -62.5q0 -31 -21 -49t-53 -18q-24 0 -44 13t-20 36q0 21 17.5 36t39.5 15
q7 0 12 -5.5t5 -13.5q0 -12 -17.5 -18t-17.5 -13q0 -12 25 -12q30 0 35 18v10q0 23 -15.5 36t-39.5 13q-41 0 -68.5 -22t-27.5 -61q0 -18 6 -37t11.5 -30.5t19 -33.5t17.5 -30q30 -54 30 -107q0 -38 -12 -66q-16 -36 -49 -65.5t-71 -40.5l-16 -4h-53q-15 0 -39 12
q-44 21 -64 46.5t-20 69.5zM156 566q1 -3 17 -3q25 0 25 5t-11 16.5t-17 11.5h-1q-1 -18 -13 -30zM257 568q0 -5 25 -5h10l5 2v1q-12 15 -13 30q-7 -3 -17 -12.5t-10 -15.5zM151 569q-1 0 -1 -1.5t1 -1.5t1 1.5t-1 1.5zM290 599q12 -10 13 -32q7 2 18.5 13t11.5 17
q0 5 -25 5q-14 0 -18 -3zM122 597q0 -5 11 -16.5t16 -11.5h1q1 17 13 30v1q-5 1 -6 2h-10q-25 0 -25 -5z" />
    <glyph glyph-name=".null" horiz-adv-x="0" 
 />
    <glyph glyph-name="nonmarkingreturn" horiz-adv-x="333" 
 />
    <glyph glyph-name="NULL" horiz-adv-x="0" 
 />
    <glyph glyph-name="NULL" horiz-adv-x="0" 
 />
    <glyph glyph-name="CR" unicode="&#xd;" horiz-adv-x="250" 
 />
    <glyph glyph-name="space" unicode=" " horiz-adv-x="220" 
 />
    <glyph glyph-name="exclam" unicode="!" horiz-adv-x="256" 
d="M67 68q0 24 13 38.5t35 14.5q43 0 43 -52q0 -59 -44 -59q-22 0 -34.5 17.5t-12.5 40.5zM119 229q-21 4 -35.5 18t-21 30.5t-9.5 42.5t-2.5 43.5t2 46t1.5 37.5q0 25 5 65t15.5 88.5t32 82.5t49.5 34q41 0 50 -48v-61v-61q-1 -5 -3 -46t-2 -46v-7q0 -30 -0.5 -47.5
t-4.5 -53t-12 -57t-24.5 -40t-40.5 -21.5z" />
    <glyph glyph-name="quotedbl" unicode="&#x22;" horiz-adv-x="349" 
d="M202 661q0 30 11.5 54t37.5 24q27 0 37.5 -25.5t10.5 -55.5q0 -20 -2 -45.5t-8 -61.5t-19.5 -59.5t-33.5 -23.5q-34 0 -34 175v7v11zM50 663q0 33 11.5 59.5t35.5 26.5q31 0 45 -39.5t14 -82.5v-7q0 -145 -47 -145q-32 0 -45.5 65.5t-13.5 122.5z" />
    <glyph glyph-name="dollar" unicode="$" horiz-adv-x="486" 
d="M197 62q-1 6 -18 9t-37 5.5t-36 15t-16 34.5t16 28q7 -1 33.5 -1t34.5 1q21 0 88 20.5t67 41.5q0 4 -6 9h-1l-1 1q-27 20 -79 39.5t-91 33t-70 44t-31 73.5q0 63 45.5 110.5t109.5 64.5q1 1 1 2q0 9 -10 40t-10 48t8.5 29t25.5 12q33 0 33 -45q0 -13 -6 -38.5t-6 -37.5
v-3q1 0 3 -0.5t3 -0.5q27 -3 44 -6.5t42.5 -12t38.5 -24t13 -37.5v-9l-8 -4q-19 8 -66 8q-20 0 -41.5 -3.5t-45 -11t-39 -24t-15.5 -39.5q0 -5 27.5 -16.5t66.5 -28.5t78 -39.5t66.5 -58t27.5 -75.5q0 -25 -7 -44.5t-23.5 -33.5t-29 -22.5t-38 -21.5t-37.5 -20v-17t-0.5 -22
t-2 -22.5t-5 -23.5t-8.5 -19t-13.5 -14.5t-19.5 -4.5q-14 0 -24 7.5t-15.5 23t-8 26t-5 31t-2.5 23.5z" />
    <glyph glyph-name="quotesingle" unicode="'" horiz-adv-x="206" 
d="M50 663q0 33 11.5 59.5t35.5 26.5q31 0 45 -39.5t14 -82.5v-7q0 -145 -47 -145q-32 0 -45.5 65.5t-13.5 122.5z" />
    <glyph glyph-name="parenleft" unicode="(" horiz-adv-x="250" 
d="M20 383q0 29 7 75t20.5 98.5t39 89t57.5 36.5q10 0 17 -6.5t7 -16.5q0 -11 -13 -43l-13 -31q-26 -95 -26 -189q0 -122 44 -215q6 -13 38 -51t32 -50q0 -22 -33 -22q-42 0 -77.5 37.5t-56 91t-32 106t-11.5 90.5z" />
    <glyph glyph-name="parenright" unicode=")" horiz-adv-x="264" 
d="M74 -4q0 18 7.5 39.5t19.5 47t16 38.5q48 138 48 250v67q-18 125 -78 179q-3 2 -23 16.5t-32 27t-12 23.5q0 25 26 25q50 0 90.5 -35.5t62.5 -89t33.5 -106.5t11.5 -98q0 -62 -10 -108q-14 -64 -61.5 -175.5t-87.5 -111.5q-7 0 -9 2t-2 9z" />
    <glyph glyph-name="comma" unicode="," horiz-adv-x="224" 
d="M56 -131q0 19 7 53t7 52v31q-2 6 -11 27t-9 34q0 21 15 36t37 15q38 0 55 -31.5t17 -72.5q0 -34 -9 -72.5t-33 -72t-58 -33.5q-18 0 -18 34z" />
    <glyph glyph-name="hyphen" unicode="-" horiz-adv-x="411" 
d="M50 323q0 12 10.5 21.5t29.5 14.5t39.5 8t46.5 3.5t43.5 0.5t37.5 -0.5t23 -0.5q17 0 28.5 -1t25 -5t20.5 -14t7 -26q0 -15 -10 -24.5t-30.5 -13t-31.5 -4.5t-32 -2h-9h-65h-64q-69 9 -69 43z" />
    <glyph glyph-name="period" unicode="." horiz-adv-x="210" 
d="M50 63q0 25 15.5 40t39.5 15t39.5 -14t15.5 -38q0 -25 -14.5 -41.5t-39.5 -16.5q-23 0 -39.5 16t-16.5 39z" />
    <glyph glyph-name="slash" unicode="/" horiz-adv-x="345" 
d="M51 20q0 3 -0.5 16.5t-0.5 15.5q0 59 15 131t27 111t47 133t41 111q19 45 22 61q1 4 9 28.5t13.5 38.5t18.5 28.5t28 14.5q18 0 23 -14q0 -1 0.5 -11.5t0.5 -12.5q0 -13 -1.5 -26.5t-6 -30.5t-6.5 -24.5t-9 -29.5t-8 -26q-12 -37 -54.5 -166t-63.5 -199q-2 -5 -13 -46.5
t-13 -45.5q0 -2 -3 -14t-6 -20t-8 -18.5t-12.5 -16t-16.5 -5.5q-18 0 -23 17z" />
    <glyph glyph-name="zero" unicode="0" horiz-adv-x="413" 
d="M30 337q0 50 12 105.5t36 110t68 90t100 35.5q36 0 64.5 -26t43 -65.5t22 -78t7.5 -71.5q0 -48 -12 -101.5t-35 -105.5t-65 -85.5t-94 -33.5q-41 0 -71.5 21.5t-46 57t-22.5 72t-7 75.5zM154 344v-47q5 -67 26 -67h3q71 54 71 207q0 38 -9.5 87.5t-28.5 62.5
q-27 -16 -44.5 -104.5t-17.5 -138.5z" />
    <glyph glyph-name="one" unicode="1" horiz-adv-x="426" 
d="M224 481q-9 -9 -34 -36.5t-43.5 -38.5t-48.5 -14q-19 -2 -33.5 10t-14.5 32q0 46 93.5 132.5t139.5 86.5q22 0 39 -9.5t27 -29t16 -37t8 -46.5t2.5 -45t0 -44.5t-0.5 -32.5q0 -90 -1 -94q0 -18 -4 -74q0 -4 -1.5 -23.5t-3 -34t-5 -37.5t-9 -39.5t-12.5 -32.5t-18.5 -24.5
t-25.5 -8.5q-23 0 -38.5 18.5t-22 47.5t-8.5 50.5t-2 42.5v281z" />
    <glyph glyph-name="two" unicode="2" horiz-adv-x="476" 
d="M30 87q0 18 9.5 38.5t19.5 33t28 33.5t23 27q12 16 48 58.5t55 68.5t44 65t36.5 77t11.5 76q-41 0 -80.5 -34t-64.5 -76q-5 -8 -10 -26.5t-12.5 -26.5t-25.5 -8q-24 0 -36.5 18.5t-12.5 44.5q0 83 73.5 149.5t156.5 66.5q51 0 85 -34t34 -85q0 -44 -19 -98t-35 -84
t-57.5 -96.5t-47.5 -76.5q13 4 37.5 13.5t44.5 15t39 5.5q33 0 52.5 -16t19.5 -48q0 -37 -39.5 -69.5t-95 -52t-106.5 -30.5t-81 -11q-2 0 -15 0.5t-16 0.5q-27 7 -45 29t-18 52z" />
    <glyph glyph-name="three" unicode="3" horiz-adv-x="462" 
d="M30 106q0 21 8.5 35t25 20.5t31 9.5t36 5t30.5 4q23 1 88 22.5t65 38.5v2q-21 13 -54.5 19t-53.5 7t-64.5 -1t-48.5 -2q-21 -1 -31.5 19.5t-10.5 43.5t12 40t25.5 24.5t38 18.5t34.5 17q42 25 88.5 64.5t46.5 65.5q-84 0 -156 -43q-6 -4 -11.5 -18.5t-17.5 -14.5
q-16 0 -27.5 14.5t-11.5 32.5q0 33 21.5 57.5t55.5 36t65 17t59 5.5q117 0 117 -90q0 -18 -5.5 -37t-11.5 -32t-20.5 -32.5t-21 -27t-25 -28t-22.5 -24.5q30 -10 53 -21t46.5 -28.5t36 -43.5t12.5 -58q0 -54 -27 -95t-71 -62.5t-89.5 -31.5t-92.5 -10t-84.5 18.5t-37.5 62.5
z" />
    <glyph glyph-name="seven" unicode="7" horiz-adv-x="504" 
d="M174 74q2 53 23 119t47 119.5t52 119.5t35 113q0 8 -5 13q-2 0 -10.5 0.5t-9.5 0.5q-30 0 -87 -13t-87 -13q-32 0 -57 15.5t-25 45.5q0 29 25 48.5t65.5 27t69.5 10t58 2.5h54q59 -8 95.5 -48.5t36.5 -100.5q0 -33 -6.5 -67.5t-22 -75.5t-25 -64t-33 -72t-29.5 -62
q-2 -5 -18.5 -42.5t-17.5 -40.5q-2 -5 -9.5 -21.5t-13 -26.5t-14.5 -22.5t-20 -18.5t-25 -6q-22 0 -34 18.5t-12 41.5z" />
    <glyph glyph-name="eight" unicode="8" horiz-adv-x="469" 
d="M30 161q0 29 10.5 55.5t19.5 39.5t35 41.5t34 37.5q-38 39 -56 74t-18 81q0 97 80 150.5t182 53.5q54 0 88 -26t34 -77q0 -32 -11.5 -64t-35 -65.5t-40 -53.5t-46.5 -53l-8 -8q4 -4 5 -4q5 -4 21.5 -15t22.5 -16t19 -16t18.5 -18.5t12.5 -19t10 -24.5t3 -27
q0 -45 -44 -87.5t-100.5 -66t-99.5 -23.5q-59 0 -97.5 36t-38.5 95zM137 166q0 -11 3 -14.5t14 -7.5l2 -1q1 -1 2 -1q5 -1 27 -1q31 0 82.5 19t51.5 43q0 9 -8 12q-83 45 -111 67h-5q-16 0 -37 -48.5t-21 -67.5zM178 484q0 -15 8 -29.5t16 -23t23 -22.5h1q14 0 58 82t44 105
q-51 0 -100.5 -32t-49.5 -80z" />
    <glyph glyph-name="nine" unicode="9" horiz-adv-x="526" 
d="M131 89q0 28 23 46t55.5 29t65 25.5t55.5 45.5t23 79l1 6v13.5t-0.5 14t-2.5 13t-6 7.5q-38 -59 -95 -102t-116 -43q-48 0 -76 31t-28 82q0 67 37.5 122t91 83.5t117 29t112.5 -34.5q53 -37 80.5 -102.5t27.5 -137.5q0 -120 -81 -193t-197 -73h-37q-21 6 -35.5 21
t-14.5 38zM288 484q-31 0 -81.5 -41.5t-50.5 -72.5v-2q27 12 79.5 54.5t52.5 61.5z" />
    <glyph glyph-name="colon" unicode=":" horiz-adv-x="210" 
d="M50 437q0 25 15.5 40t39.5 15t39.5 -14t15.5 -38q0 -25 -14.5 -41.5t-39.5 -16.5q-23 0 -39.5 16t-16.5 39zM50 63q0 25 15.5 40t39.5 15t39.5 -14t15.5 -38q0 -25 -14.5 -41.5t-39.5 -16.5q-23 0 -39.5 16t-16.5 39z" />
    <glyph glyph-name="semicolon" unicode=";" horiz-adv-x="210" 
d="M50 437q0 25 15.5 40t39.5 15t39.5 -14t15.5 -38q0 -25 -14.5 -41.5t-39.5 -16.5q-23 0 -39.5 16t-16.5 39zM56 -131q0 19 7 53t7 52v31q-2 6 -11 27t-9 34q0 21 15 36t37 15q38 0 55 -31.5t17 -72.5q0 -34 -9 -72.5t-33 -72t-58 -33.5q-18 0 -18 34z" />
    <glyph glyph-name="question" unicode="?" horiz-adv-x="376" 
d="M142 72q0 23 11.5 37.5t33.5 14.5t34.5 -15t12.5 -38q0 -22 -11.5 -37.5t-32.5 -15.5t-34.5 16t-13.5 38zM133 311q0 30 11 64t22 55.5t33.5 60t30.5 52.5q0 1 0.5 1t0.5 1q1 1 1 2t1 2q19 35 19 57q0 33 -30 33q-48 0 -83.5 -36.5t-35.5 -83.5q0 -13 7 -35.5t7 -34.5
q0 -16 -23 -16q-33 0 -53.5 38t-20.5 74q0 75 67.5 126t145.5 51q56 0 89.5 -34.5t33.5 -91.5q0 -36 -12 -71t-37.5 -82t-33.5 -66q0 -1 -16 -51t-34.5 -84.5t-36.5 -34.5q-28 0 -40.5 35t-12.5 69z" />
    <glyph glyph-name="at" unicode="@" horiz-adv-x="654" 
d="M30 325q0 156 103 270t256 114q99 0 167 -67.5t68 -167.5q0 -67 -38 -127t-101 -60q-23 0 -40 8.5t-26 18.5t-25 34l-4 4q-43 -84 -101 -84q-35 0 -55 27t-20 64q0 55 35.5 104.5t88.5 49.5q33 0 54 -17t30 -41t16.5 -48.5t19.5 -41.5t31 -17q29 0 44 37.5t15 71.5v30
q-10 41 -44.5 76t-75.5 44q-3 0 -20 0.5t-19 0.5q-109 0 -182 -73t-73 -182q0 -76 61.5 -127t140.5 -51q63 0 103 11q8 2 26 9t32.5 10.5t27.5 3.5q35 0 35 -28q0 -36 -48 -70t-104 -52.5t-92 -18.5q-119 0 -202.5 83.5t-83.5 201.5zM350 439q-18 0 -32 -24.5t-14 -44.5v-7
q1 2 12.5 15.5t16.5 20.5t11 19t6 21z" />
    <glyph glyph-name="A" unicode="A" horiz-adv-x="409" 
d="M51 194v6q0 46 6.5 115.5t21 150t44 136.5t68.5 56q47 0 83 -76.5t52.5 -183t24.5 -188.5t8 -124q0 -75 -47 -75q-18 0 -30.5 13.5t-18 28.5t-11.5 39t-9 31l-81 -28l-4 -4v-12.5t-0.5 -17.5t-2 -18.5t-4 -19t-7 -15t-12 -11.5t-16.5 -4q-65 0 -65 201zM180 475
q-27 -137 -27 -273q38 0 72 14v11q0 34 -6 71.5t-19 95.5t-15 67z" />
    <glyph glyph-name="B" unicode="B" horiz-adv-x="468" 
d="M101 160q0 48 5.5 144t5.5 144q0 2 -0.5 13.5t-0.5 13.5q-3 -2 -10 -7t-9 -7t-7.5 -5t-9 -4t-9 -2t-11.5 -1q-35 0 -35 40q0 41 45.5 84t104 69t100.5 26q78 0 128 -47t50 -120q0 -95 -117 -194v-6q51 -43 51 -96q0 -70 -61.5 -131.5t-135.5 -61.5q-24 0 -41 9t-25 21
t-12.5 34t-5 35.5t-0.5 39.5v9zM228 532l-4 -193q48 0 90 51.5t42 97.5q0 59 -62 59h-2q-55 0 -64 -15zM218 258q-3 -94 -25 -173l5 -1q33 0 78 46t45 78q0 23 -21.5 42t-45.5 19q-30 0 -36 -11z" />
    <glyph glyph-name="C" unicode="C" horiz-adv-x="439" 
d="M30 301q0 63 14 132t42.5 138t82.5 113.5t124 44.5q48 0 82 -32.5t34 -79.5q0 -45 -26.5 -96.5t-66.5 -51.5q-28 0 -28 23q0 20 23 60t23 64q0 19 -12 30.5t-32 11.5q-96 0 -139 -131.5t-26.5 -263t65.5 -131.5q43 0 165 182q9 10 23 10q23 0 23 -41q0 -86 -64 -179
t-145 -93q-162 0 -162 290z" />
    <glyph glyph-name="D" unicode="D" horiz-adv-x="473" 
d="M97 461q-7 -2 -21 -12t-25 -10q-15 0 -23 10t-8 26q0 46 35 82t80.5 52.5t88.5 16.5q57 0 102.5 -25.5t72 -67.5t40.5 -92t14 -104q0 -76 -25 -150t-83.5 -129.5t-138.5 -55.5q-26 0 -34 5q-49 29 -66 307q0 3 -0.5 8.5t-0.5 7.5t-0.5 5t-0.5 4q-4 46 -7 122zM194 504
q0 -24 8.5 -70t9.5 -61q11 -119 11 -287h3q6 4 35 19q52 28 75.5 85.5t23.5 124.5q0 49 -11 91t-43 75.5t-82 33.5q-1 0 -6.5 0.5t-8.5 0t-7 -1t-6 -3.5t-2 -7z" />
    <glyph glyph-name="E" unicode="E" horiz-adv-x="406" 
d="M60 327q0 41 11 121t11 120q-6 0 -19 -2t-19 -2q-24 0 -24 31q0 34 26.5 59.5t67.5 38t77.5 18t68.5 5.5h5q18 0 28 -0.5t22.5 -8t12.5 -21.5q0 -7 -4.5 -12.5t-13 -10t-14.5 -6.5t-15.5 -5t-10.5 -3q-77 -32 -81 -36l-4 -5q-3 -37 -5 -53q0 -6 -1 -20.5t-2 -25.5t-1 -12
v-31q4 0 23 0.5t29.5 -0.5t25 -4.5t22 -13t7.5 -24.5q0 -43 -111 -51q0 -4 -0.5 -20t-0.5 -18v-5q0 -119 52 -119q28 0 71.5 36t68.5 36q23 0 23 -31q0 -50 -63.5 -103.5t-115.5 -53.5q-43 0 -73.5 22.5t-45.5 59.5t-21.5 74t-6.5 76z" />
    <glyph glyph-name="F" unicode="F" horiz-adv-x="406" 
d="M78 351q0 35 6.5 105t6.5 104q-15 0 -22.5 0.5t-21.5 3.5t-20.5 11.5t-6.5 21.5q0 29 22 50t56 30.5t62.5 13t54.5 3.5q19 0 41.5 -1.5t55 -7t53.5 -18.5t21 -32q0 -16 -15 -26t-31.5 -12.5t-39.5 -4t-26 -2.5q-9 -1 -28 -4t-33 -5.5t-15 -2.5l-8 -5v-153h9q89 3 89 -44
q0 -13 -9 -24t-22 -11h-69q0 -20 2 -86.5t0.5 -114.5t-9.5 -89q-7 -32 -36 -32q-17 0 -30 21t-19 54t-9 54t-4 41q0 6 -1.5 22t-2.5 29.5t-1 15.5v95z" />
    <glyph glyph-name="G" unicode="G" horiz-adv-x="480" 
d="M30 252q0 60 14.5 133t42.5 147.5t80.5 124.5t119.5 50q65 0 114 -55t49 -121q0 -32 -14 -69t-41 -37q-13 0 -20.5 31.5t-12.5 69.5t-27.5 69.5t-62.5 31.5q-42 0 -74.5 -43t-48 -106t-23 -117.5t-7.5 -93.5q0 -199 88 -199q46 0 83.5 52.5t37.5 99.5q-10 0 -31 -2
t-31 -2q-71 0 -71 49q0 25 22.5 41t47 21t49.5 5q50 0 70.5 -27t20.5 -80q0 -59 -23.5 -118.5t-71.5 -102.5t-108 -43q-52 0 -88.5 28.5t-53.5 76t-23.5 92t-6.5 94.5z" />
    <glyph glyph-name="H" unicode="H" horiz-adv-x="471" 
d="M50 544v60q3 18 13 31.5t27 13.5q16 0 30 -20t24 -54.5t17.5 -73.5t12 -83.5t7.5 -77.5t5 -62t2 -31q1 -4 11 -4q16 0 47.5 6t44.5 7q0 40 4 108q0 72 5 142q5 183 65 183q14 0 24 -9t16 -25.5t9.5 -33.5t5 -40.5t1.5 -38t-0.5 -34t-0.5 -21.5q0 -135 -5 -298
q0 -19 -4 -75v-5q-7 -125 -54 -125q-38 0 -52 85q0 1 -0.5 2.5t-0.5 2.5q-5 23 -9 67h-2q-14 0 -30 -3t-36.5 -8t-29.5 -7q-6 -53 -9 -116q-2 -10 -9.5 -16.5t-16.5 -6.5q-18 0 -34.5 31.5t-26.5 78.5t-15.5 82t-8.5 62q-2 15 -9 73.5t-9.5 83t-5.5 68.5t-3 81z" />
    <glyph glyph-name="I" unicode="I" horiz-adv-x="222" 
d="M51 193q0 38 2 90t8.5 141.5t24.5 148t45 58.5q15 0 24 -13.5t11 -24.5t4 -31q0 -2 0.5 -4t0.5 -3q0 -7 0.5 -41.5t0.5 -40.5v-30t-0.5 -36t-0.5 -17q0 -30 -5 -98q-3 -66 -3 -89q0 -4 -1 -21t-2.5 -33t-4 -37.5t-6.5 -39t-10.5 -33t-16.5 -24.5t-22 -9q-53 0 -49 175v12
z" />
    <glyph glyph-name="J" unicode="J" horiz-adv-x="504" 
d="M60 198q0 32 16.5 54t47.5 22q22 0 38 -15.5t24 -34t24.5 -34t39.5 -15.5q52 0 52 125q0 141 -45 215q-5 -2 -37.5 -13.5t-50.5 -17.5t-45.5 -12t-47.5 -6q-56 0 -56 47q0 42 43.5 75.5t105 51.5t116 27t88.5 9q25 0 47 -4t43 -19t21 -40q0 -16 -10 -28t-27.5 -19
t-32.5 -11.5t-35 -8.5t-24 -5q-5 -1 -5 -6v-1l1 -2q53 -137 53 -250q0 -59 -14 -108t-54 -86t-102 -37q-68 0 -121 40.5t-53 106.5z" />
    <glyph glyph-name="K" unicode="K" horiz-adv-x="431" 
d="M31 224q0 115 4 228q0 2 5 67q12 166 67 166q23 0 36 -22t13 -46v-236h5q2 0 53 54q13 14 38 64t47.5 91t34.5 41q13 0 20 -10.5t7 -24.5q0 -129 -107 -250v-5q157 -151 157 -230q0 -43 -33 -43q-14 0 -26 10l-125 125l-7 7q-8 7 -17.5 15.5t-15.5 12.5l-35 32h-5
q-16 -206 -71 -206q-48 0 -45 149v11z" />
    <glyph glyph-name="L" unicode="L" horiz-adv-x="443" 
d="M20 551q0 102 52 102q28 0 47 -84.5t30 -201t15 -133.5h2q6 0 29 10.5t27 11.5q97 36 151 36q50 0 50 -40q0 -38 -123.5 -99.5t-159.5 -61.5q-32 0 -57.5 61t-38 145t-18.5 151.5t-6 102.5z" />
    <glyph glyph-name="M" unicode="M" horiz-adv-x="673" 
d="M50 92v36q0 49 2 103t9.5 152t28 160.5t51.5 62.5q26 0 55 -72t52.5 -147.5t35.5 -80.5q48 139 156 305v7q4 20 6.5 30.5t9.5 26.5t18.5 23.5t27.5 7.5q34 0 59 -60t37 -145t17.5 -150.5t5.5 -101.5q0 -3 0.5 -17.5t0.5 -27t-1 -30.5t-4.5 -32t-9 -27t-15.5 -20t-24 -7
q-31 0 -56.5 50.5t-40 124t-22 127t-9.5 87.5q-24 -56 -76 -209q-3 -7 -17.5 -50.5l-16.5 -49.5q0 -2 -3 -14.5t-5 -17.5t-6.5 -14t-11.5 -12.5t-16 -3.5q-12 0 -23 7t-18.5 15.5t-15.5 24t-11.5 25t-10 26.5t-7.5 21q-12 37 -29 77q-3 -10 -9 -44t-12.5 -61.5t-16.5 -58
t-25 -48t-33 -17.5q-21 0 -27 19z" />
    <glyph glyph-name="N" unicode="N" horiz-adv-x="496" 
d="M165 349q-2 -14 -5 -59t-7.5 -82t-12.5 -63q-6 -29 -31 -29q-19 0 -30 13t-13.5 26t-4.5 36q0 2 -0.5 5.5t-0.5 5.5q-9 78 -9 104q0 1 -0.5 22.5t-0.5 47v37.5q0 9 0.5 54t0.5 53q9 109 59 109q28 0 70.5 -76t84.5 -168.5t57 -111.5q0 59 4 147v16q7 222 76 222
q23 0 33.5 -18t10.5 -42q0 -34 -12 -101t-12 -100v-343q0 -20 -32 -20q-58 0 -182 234q-18 30 -43 81z" />
    <glyph glyph-name="O" unicode="O" horiz-adv-x="523" 
d="M30 223q0 57 20 102q11 29 28 57q4 7 8.5 13.5t6 9t3 7t1.5 10.5q0 11 -5 31t-5 32q0 50 37.5 90t88.5 59.5t100 19.5q86 0 133 -65t47 -155q0 -60 -21 -128t-57.5 -128t-94 -99.5t-123.5 -39.5q-72 0 -119.5 55.5t-47.5 128.5zM135 254q0 -33 16.5 -59.5t47.5 -26.5
q48 0 87.5 47t58.5 105t19 105q0 95 -60 95q-27 0 -53.5 -12t-26.5 -35v-7l1 -7q6 -6 18.5 -18t17 -17t9 -15.5t4.5 -22.5q0 -38 -57 -38q-10 0 -27 5.5t-26 5.5q-14 0 -21.5 -40t-7.5 -65z" />
    <glyph glyph-name="P" unicode="P" horiz-adv-x="502" 
d="M102 482l-5 5q-28 -22 -28 -38q0 -1 2 -3l2 -2v-2q0 -9 -20 -9q-33 0 -33 48q0 90 99 157q91 61 197 62q111 0 150 -72q16 -30 16 -70q0 -55 -12.5 -101.5t-28 -75t-44.5 -58t-45.5 -41.5t-47.5 -33q-13 -8 -21 -14l-5 -5v-195q0 -15 -13.5 -24t-27.5 -9q-25 0 -50 63.5
t-43 157.5t-27.5 155.5t-14.5 103.5zM187 551v-3q30 -59 43 -99q2 -6 9.5 -46t18.5 -54q96 81 96 174q0 60 -71 60q-20 0 -58 -9.5t-38 -22.5z" />
    <glyph glyph-name="Q" unicode="Q" horiz-adv-x="671" 
d="M50 271q0 89 39 160.5t114 141.5q-6 5 -6 24q0 43 45 64t93 21q122 0 188 -64.5t66 -185.5q0 -94 -29 -164q-13 -26 -25 -48q0 -1 -6.5 -11.5t-7.5 -11.5q-1 -2 -1 -3q0 -7 25 -17.5t50.5 -28.5t25.5 -42q0 -47 -69 -47q-55 0 -126 33q-21 -8 -53.5 -25.5t-59 -27
t-58.5 -9.5q-95 0 -150 70.5t-55 170.5zM174 273q11 -40 37 -68t63 -28q20 0 33 6q-1 4 -4 8q-34 62 -34 101q0 26 12 48.5t36 22.5q14 0 33.5 -19t41 -46t29.5 -35q68 58 68 169v2q0 81 -25 96q-4 -15 -15 -15q-5 0 -35 14.5t-54 14.5q-87 0 -136.5 -69t-49.5 -159v-43z
M460 537q-2 0 -2 -2.5t2 -2.5t2 2.5t-2 2.5z" />
    <glyph glyph-name="R" unicode="R" horiz-adv-x="658" 
d="M134 482q-48 -44 -76 -100q-3 -5 -10 -5q-14 0 -21 20t-7 37q0 74 69.5 146t160 113t162.5 41q75 0 124.5 -46.5t49.5 -119.5q0 -46 -20.5 -89t-44 -68.5t-65.5 -66.5t-61 -62q15 -21 57.5 -41t82.5 -33.5t71.5 -37t31.5 -52.5q0 -55 -78 -55q-64 0 -141 34q-6 3 -27 14
t-36.5 16.5t-28.5 5.5v-8q0 -22 -1 -32.5t-5.5 -27t-16 -24t-31.5 -7.5q-26 0 -47.5 27t-36 74t-25 95t-17 104.5t-9 88t-4.5 59.5zM234 553q14 -18 25 -44t15.5 -43t11.5 -52t9 -46l5 -9q30 27 47 44.5t43.5 48.5t39.5 61.5t13 59.5q0 38 -45 38q-29 0 -92 -20.5t-72 -37.5
z" />
    <glyph glyph-name="S" unicode="S" horiz-adv-x="529" 
d="M95 54q0 21 18.5 35.5t41.5 21.5t41.5 21t18.5 34q0 9 -20 26.5t-48.5 40t-57.5 49.5t-49 64.5t-20 76.5q0 70 54 131.5t128.5 94.5t143.5 33q63 0 113 -36.5t50 -97.5q0 -69 -69 -127t-140 -58q-42 0 -42 24q0 13 33 39.5t66.5 58.5t33.5 57q0 26 -60 26h-2
q-56 0 -118.5 -40.5t-62.5 -92.5q0 -22 22 -46t53.5 -47t63 -48.5t53.5 -60t22 -72.5q0 -69 -63.5 -109.5t-136.5 -40.5q-67 0 -67 43z" />
    <glyph glyph-name="T" unicode="T" horiz-adv-x="545" 
d="M119 58q0 154 57 463q-3 0 -31 -1.5t-43 0t-37.5 6t-33.5 17.5t-11 34q0 39 43.5 66.5t110 38.5t114 15t87.5 4h6q29 0 46 -1.5t44 -7.5t40.5 -22t13.5 -41q0 -19 -13 -34t-30 -23.5t-45 -15t-46 -9t-45 -5t-31 -3.5q0 -20 -5 -80q-3 -42 -13 -112.5t-27.5 -161
t-44.5 -154t-57 -63.5q-17 0 -28 8t-15 24t-5 27t-1 31z" />
    <glyph glyph-name="U" unicode="U" horiz-adv-x="575" 
d="M30 270q0 38 16 114t49 149t71 73q12 0 19.5 -8t7.5 -21q0 -40 -10 -121t-10 -123q0 -29 1.5 -45t7.5 -41.5t22.5 -38t42.5 -12.5q34 0 59 21.5t37.5 55t18.5 66t6 62.5q0 22 -2 65t-2 66v31q8 34 56 34q35 0 61 -25t39 -63.5t19 -74.5t6 -69q0 -129 -87.5 -232
t-215.5 -103q-98 0 -155 69.5t-57 170.5z" />
    <glyph glyph-name="V" unicode="V" horiz-adv-x="507" 
d="M20 612q0 51 43 51q19 0 38 -10t36 -29.5t31 -39t29 -48t23 -46t19.5 -44t13.5 -30.5q1 -3 7.5 -20t13.5 -30t13 -17q4 4 4 10q0 1 6 18.5t11.5 33.5t6.5 19q9 24 20.5 50.5t30 62.5t40 59t40.5 23t30 -12t11 -31q0 -12 -6 -34q-6 -28 -32.5 -145.5t-38.5 -182.5
q-3 -14 -4.5 -45.5t-4.5 -55.5t-10.5 -49.5t-26 -39.5t-46.5 -14q-42 0 -60 29q-113 175 -223 503q-14 34 -14 43q-1 1 -1 21z" />
    <glyph glyph-name="W" unicode="W" horiz-adv-x="725" 
d="M20 381q0 162 59 162q31 0 42 -70v-2q0 -1 0.5 -3.5t0.5 -3.5q0 -6 6 -54l6 -47l9 -61l4 -5q51 88 132 198q11 14 19 18t25 4q32 0 67.5 -33.5t71 -81.5t50.5 -61l2 20q27 301 129 301q22 0 35.5 -11t19 -33t6.5 -36.5t1 -38.5v-6q0 -34 -4 -70t-12 -83.5t-11 -68.5
q0 -1 -0.5 -2t-0.5 -2q-1 -6 -4 -35t-4 -40v-33t-2 -45t-8 -39t-20.5 -34.5t-37.5 -11.5q-11 0 -21.5 4t-20 13.5t-15 16.5t-15 20.5t-12.5 17.5l-198 257l-4 5q-35 -63 -77 -176l-42 -109l-5 -10q-9 -23 -14 -33.5t-18.5 -21t-32.5 -10.5q-32 0 -55 41t-33 103t-14 108.5
t-4 81.5z" />
    <glyph glyph-name="X" unicode="X" horiz-adv-x="483" 
d="M64 160q0 33 31 94.5t31 93.5q0 9 -5 15q-8 12 -30 40t-35 46.5t-24.5 45.5t-11.5 51q0 45 35 45q18 0 41 -13.5t36 -25t37.5 -36.5t25.5 -26q37 68 44 84q0 1 1.5 3t2.5 4q12 23 21 38t27.5 31t37.5 16q18 0 28 -13t10 -32q0 -27 -9.5 -61t-19 -57t-27.5 -62t-23 -52v-8
q0 -1 3.5 -6t9 -11.5t8.5 -9.5q119 -119 141 -140q13 -19 13 -42q0 -18 -14 -30t-32 -12q-21 0 -43 8t-46.5 25.5t-38.5 29t-40.5 36.5t-31.5 29l-65 -97q-27 -39 -55 -39q-33 0 -33 38z" />
    <glyph glyph-name="Y" unicode="Y" horiz-adv-x="477" 
d="M78 170q0 27 23 44q14 10 49 16.5t43 9.5q70 26 107.5 88.5t37.5 140.5v17q-5 -5 -33.5 -34t-42 -40t-39.5 -30.5t-49.5 -27.5t-48.5 -8h-29q-30 9 -48 35t-18 58q0 33 15 84.5t45.5 97t65.5 45.5q28 0 28 -24q0 -23 -11 -69t-11 -70v-8q115 55 197 123q6 4 20 4
q22 0 37 -25t21 -63.5t8 -66.5t2 -53q0 -83 -29 -152.5t-91.5 -115.5t-147.5 -46q-36 0 -68.5 18t-32.5 52z" />
    <glyph glyph-name="Z" unicode="Z" horiz-adv-x="589" 
d="M20 145q0 26 14 42q58 56 166 170t163 168q-2 1 -9 1q-32 0 -93.5 -25t-93.5 -25q-19 0 -32 14.5t-13 34.5q0 31 29 54t72.5 34.5t81.5 16.5t67 5q3 0 21.5 -0.5t22.5 -0.5q79 -16 79 -76q0 -37 -44 -94.5t-112 -126t-77 -79.5h166q43 7 92 -17t49 -67q0 -35 -31 -44
q-33 -9 -96.5 -10t-82.5 -3q-35 -4 -124.5 -26.5t-139.5 -22.5q-34 0 -54.5 21.5t-20.5 55.5z" />
    <glyph glyph-name="a" unicode="a" 
d="M331 209h-5q-94 -34 -174 -38q-8 -11 -14 -38t-16 -43.5t-32 -16.5q-18 0 -27.5 12t-11 24t-1.5 32q0 30 4 60t13.5 63.5t17 57.5t24 61.5t24 55t28 59.5t25.5 53q34 75 40 84q3 7 9.5 24.5t11.5 27.5t13 22t20 17.5t27 5.5q40 0 59 -44q13 -30 24 -71t15.5 -68t12 -79.5
t9.5 -67.5l5 -27q31 -190 31 -282v-28q-8 -27 -36 -27q-55 0 -96 171zM282 521q-4 -3 -8 -13q-64 -156 -88 -232l4 -1q25 0 72 10.5t47 23.5q0 14 -4 43t-4 33z" />
    <glyph glyph-name="b" unicode="b" horiz-adv-x="461" 
d="M64 503q-44 11 -44 48q0 38 40.5 72t91 51.5t88.5 17.5q71 0 136 -47t65 -115q0 -81 -109 -162v-5q92 -50 92 -127q0 -81 -76 -146.5t-156 -67.5q-1 -1 -7 -1q-70 0 -93 203q0 2 -0.5 4t-0.5 4q-7 40 -27 271zM196 398l4 -9q43 19 89.5 56t46.5 70t-81 33h-5h-5
q-76 0 -76 -18v-4l9 -40q5 -30 18 -88zM216 299q0 -34 7 -98t8 -92q34 12 72 49.5t38 70.5q0 28 -23.5 45t-48.5 21t-53 4z" />
    <glyph glyph-name="c" unicode="c" horiz-adv-x="430" 
d="M31 245q0 4 -0.5 23t-0.5 22q0 70 33 162t96.5 166.5t135.5 74.5q50 0 77.5 -33.5t27.5 -85.5q0 -30 -11 -72.5t-37 -80t-58 -37.5q-14 0 -14 16q0 25 14 74.5t14 75.5q0 2 -0.5 14t-0.5 14q-4 13 -13 13q-20 0 -53 -40q-83 -95 -83 -232q0 -41 14 -64.5t52 -23.5
q12 0 37 4.5t37 4.5q49 0 49 -28q0 -47 -48 -75t-99 -28q-62 0 -109 37.5t-60 98.5z" />
    <glyph glyph-name="d" unicode="d" horiz-adv-x="586" 
d="M21 96q0 59 13 131t25 117t37 127q2 5 4 15q-39 -5 -53 13v18q0 83 93.5 133t208.5 35q129 -16 184 -107q34 -56 32 -133q-6 -207 -151 -344t-352 -137q-44 0 -41 122v10zM231 539q-41 -280 -105 -487v-5q45 0 101 27q113 54 164.5 137t51.5 207q0 43 -1 51
q-6 29 -23 53.5t-43 24.5h-122q-19 0 -23 -8z" />
    <glyph glyph-name="e" unicode="e" horiz-adv-x="426" 
d="M34 161q-1 15 -1 97q0 36 7 107t7 106q0 1 -13.5 10t-13.5 18q0 44 62 96q62 54 205 54q106 0 106 -45q0 -14 -8 -17q-10 -4 -20.5 -5t-25 -0.5t-21.5 0.5q-34 -1 -105 -24t-70 -44l5 -107h4q20 0 61 9t62 9q70 0 70 -44q0 -29 -40 -46t-93.5 -28.5t-68.5 -22.5v-46v-3
q0 -118 25 -118q39 0 108 42.5t109 42.5q1 0 8 -0.5t9 -0.5q4 -5 4 -13q0 -54 -98 -113t-156 -59q-106 0 -118 145z" />
    <glyph glyph-name="f" unicode="f" horiz-adv-x="441" 
d="M59 517q-12 -1 -25.5 4t-12.5 17q1 9 10 21t17.5 19.5t22 17.5t14.5 11q54 41 131.5 61t146.5 13l37 -3q22 -8 20 -26q-1 -7 -13 -16t-32 -17.5t-36 -14.5t-37 -13.5t-22 -7.5q-10 -4 -49.5 -17.5t-55.5 -20.5q3 -91 5 -93l3 -9q94 49 159 42q1 0 12.5 -1.5t13.5 -1.5
q12 -4 20 -18.5t6 -28.5q-3 -33 -54.5 -61.5t-101.5 -44.5t-50 -19q-4 -42 1 -126t1 -125l-4 -36q-9 -22 -36 -18q-73 7 -91 505v7z" />
    <glyph glyph-name="g" unicode="g" horiz-adv-x="485" 
d="M30 317q0 59 19.5 128.5t54 133.5t90.5 106.5t120 42.5q56 0 88 -42t32 -100q0 -41 -13 -96.5t-40 -55.5q-19 0 -19 18v131q0 19 -11.5 36.5t-27.5 17.5q-60 0 -105.5 -60t-65 -131t-19.5 -129q0 -37 9.5 -85t36 -92t63.5 -44q39 0 86.5 47.5t47.5 85.5q0 13 -3 13h-99
q-25 0 -46 18t-21 41q0 29 25 42.5t56 13.5q61 0 114 -31t53 -87q0 -81 -67.5 -159t-145.5 -78q-55 0 -98 31t-66.5 80t-35.5 101.5t-12 102.5z" />
    <glyph glyph-name="h" unicode="h" horiz-adv-x="493" 
d="M303 250h-2q-17 0 -50.5 -14.5t-33.5 -30.5q0 -22 8 -65t8 -66q0 -17 -8 -30t-25 -13q-43 5 -78.5 87t-53.5 197t-17 231q11 63 42 63q33 0 55.5 -73.5t35.5 -147t22 -73.5h6l83 21l3 5q4 34 5 49q0 2 2 28t2 29q0 1 0.5 3t0.5 4q23 257 83 257q38 0 48 -87q4 -44 4 -57
v-293q-2 -14 -0.5 -42t-0.5 -63.5t-6 -67t-18 -53.5t-35 -22q-35 0 -51.5 43t-21.5 108.5t-7 72.5z" />
    <glyph glyph-name="i" unicode="i" horiz-adv-x="262" 
d="M50 56v59v60l1 12q1 12 2.5 27.5t1.5 22.5q0 9 1 33l2 25q0 1 0.5 3t0.5 3q30 323 106 323q23 0 34.5 -26t11.5 -52l1 -12v-25v-21q0 -102 -30 -304q0 -3 -1 -9.5t-2 -10.5q-1 -6 -2.5 -17.5t-2.5 -16.5q-1 -4 -3.5 -24t-4.5 -30.5t-7.5 -28.5t-12 -27.5t-18 -17.5
t-25.5 -8q-43 0 -53 62z" />
    <glyph glyph-name="j" unicode="j" horiz-adv-x="547" 
d="M20 93q0 16 11 27t28 11q23 0 69.5 -17.5t72.5 -17.5q30 0 37 5q55 36 58 190q0 14 -1 92.5t-1 92.5q-15 0 -44.5 -4t-44.5 -4q-107 0 -107 58q0 95 282 95h25.5t29.5 -1.5t34.5 -5.5t27.5 -10t22.5 -17.5t7.5 -26.5q0 -26 -20 -39t-44 -14t-44 -4t-20 -11
q0 -35 10.5 -107t10.5 -109q0 -41 -5 -80t-18.5 -81.5t-34 -73.5t-56 -51.5t-81.5 -20.5q-33 0 -79 14.5t-86 44.5t-40 65z" />
    <glyph glyph-name="k" unicode="k" horiz-adv-x="505" 
d="M423 64q-7 7 -42 42.5t-47.5 48t-40 39t-50 45t-46.5 35.5q0 -1 -0.5 -7.5t-0.5 -8.5q0 -21 2.5 -62.5t2.5 -61.5q0 -16 -1 -25.5t-4.5 -23t-12.5 -20t-24 -6.5q-41 0 -72.5 129t-43.5 253.5t-12 186.5q0 19 0.5 29.5t4 29.5t13.5 28.5t26 9.5q20 0 36.5 -21t28 -59.5
t18.5 -68.5t14 -71.5t8 -44.5l4 -8q43 34 78 107q65 124 78 156q17 26 31 26q32 0 32 -77q0 -38 -16.5 -77.5t-35 -64.5t-51 -64.5t-46.5 -59.5q15 -18 60 -62t79 -79.5t63 -82t29 -81.5q0 -38 -30 -38h-3q-20 0 -29 9z" />
    <glyph glyph-name="l" unicode="l" horiz-adv-x="387" 
d="M20 357v82q1 27 5.5 67t14 90.5t29 85t45.5 34.5h2q12 0 16 -9q5 -16 7.5 -39.5t3 -40t1 -45.5t0.5 -36q0 -4 1 -32t2 -66t1 -50q0 -13 2 -85t2 -84h4q19 0 71.5 18.5t79.5 18.5q24 0 42 -10.5t18 -32.5q0 -27 -42 -48q-123 -57 -201 -99q-7 -4 -29 -4q-18 0 -26 3.5
t-20 17.5q-16 20 -24 128q-5 30 -5 53v83z" />
    <glyph glyph-name="m" unicode="m" horiz-adv-x="836" 
d="M585 476q-35 -59 -66 -144q-4 -12 -13.5 -49t-17.5 -62.5t-27 -48t-45 -22.5q-23 0 -51 29t-54 76t-42 80.5t-30 66.5q-3 6 -16.5 41t-16.5 41l-4 5q-2 -5 -33 -115t-61.5 -187.5t-52.5 -77.5q-27 0 -35 45v44q0 49 11 105t22.5 94t32.5 100q16 40 41 115q1 1 1 3t1 3
q7 20 13 32.5t20 24.5t32 12q14 0 27.5 -7.5t24.5 -23.5t18 -27.5t17 -32.5t12 -25q29 -60 111 -219l9 18q126 255 195 255q37 0 76.5 -58t67.5 -136t46 -152t18 -110q0 -64 -48 -64q-18 0 -33.5 11t-27 32t-17.5 35.5t-14 37.5q-2 4 -4 12q-4 11 -37.5 105.5t-37.5 104.5
q-1 2 -6 16.5t-6 16.5z" />
    <glyph glyph-name="n" unicode="n" horiz-adv-x="547" 
d="M162 323q-4 -20 -4 -65v-104v-5q-3 -69 -36 -69q-23 0 -39 44t-22 109.5t-8.5 110.5t-2.5 77q0 17 3 58t2 63q13 25 45 25h12q47 -44 91 -91q8 -6 46 -54l3 -3q4 -5 41.5 -52t41.5 -52q1 0 2 -1.5t2 -1.5q0 1 0.5 3.5t0.5 4.5q33 272 108 272q36 0 48 -41v-158
q0 -208 -5 -296q-4 -22 -24.5 -37.5t-42.5 -15.5q-17 0 -35.5 12t-29 23.5t-28 35t-21.5 28.5q-6 6 -32 37.5t-30 35.5q-12 16 -82 104z" />
    <glyph glyph-name="o" unicode="o" horiz-adv-x="605" 
d="M30 313q0 124 88 200q-5 95 37 149t135 54q116 0 200.5 -67t84.5 -181q0 -88 -47.5 -176t-129 -145.5t-170.5 -57.5q-91 0 -144.5 65.5t-53.5 158.5zM129 307q16 -75 62 -94q2 0 12.5 -0.5t13.5 -0.5q78 0 135.5 79.5t57.5 160.5v32q-10 39 -49 59t-84 20t-45 -43
q0 -9 2.5 -26.5t2.5 -25.5q0 -41 -31 -41q-20 0 -56 28q-21 -31 -21 -106v-42z" />
    <glyph glyph-name="p" unicode="p" horiz-adv-x="517" 
d="M124 273v75v6q4 164 65 164q33 0 47.5 -43t17 -104t4.5 -69q126 146 126 242q0 74 -65 74t-148.5 -56t-105.5 -115q-2 -7 -0.5 -14t-1.5 -12.5t-12 -5.5q-31 0 -31 41q0 67 53 124.5t125 87.5t137 30q76 0 119 -56t43 -135q0 -113 -69 -202.5t-179 -141.5
q-12 -13 -13.5 -62t-9 -88t-35.5 -39t-47 85t-20 140v74z" />
    <glyph glyph-name="q" unicode="q" horiz-adv-x="697" 
d="M30 230q0 80 35.5 161t104 138t150.5 57q28 0 33 -1q35 -7 60.5 -33t25.5 -59v-2q0 -35 -12 -35q-1 0 -6.5 14t-23 28.5t-44.5 14.5q-57 0 -105.5 -44t-72.5 -104t-24 -116q0 -34 13.5 -62.5t45.5 -28.5h76l14 5q-68 72 -68 130q0 60 44 60q19 0 43.5 -18.5t43.5 -40
t40.5 -40t35.5 -18.5q26 0 49 54.5t23 84.5q0 47 -23 109.5t-54 82.5q-2 1 -15.5 8t-22 14.5t-8.5 15.5q0 21 16 32.5t38 11.5q55 0 97.5 -53t61 -117.5t18.5 -119.5q0 -93 -68 -177q7 -12 27.5 -20t39.5 -12.5t34 -17t15 -33.5q0 -25 -26 -36t-54 -11t-81.5 16t-74.5 16
q-12 0 -36 -13t-29 -15q-73 -27 -132 -27q-89 0 -146.5 56t-57.5 145z" />
    <glyph glyph-name="r" unicode="r" horiz-adv-x="683" 
d="M120 497q-19 -7 -32.5 -37.5t-21.5 -30.5q-22 0 -34 16t-12 38q0 55 37.5 97.5t95 65t113.5 33t105 10.5q42 0 80 -7t73 -23.5t56 -48.5t21 -76q0 -82 -59.5 -155.5t-143.5 -125.5q76 -38 121 -63q56 -28 77 -40q67 -35 67 -69q0 -19 -16 -29t-36 -10q-108 0 -330 140
v-12q0 -20 2 -62t2 -63v-6q0 -23 -1.5 -35.5t-11 -25t-29.5 -12.5q-33 0 -58 66.5t-38 170.5t-18.5 170t-8.5 124zM218 542v-2l2 -5q3 -5 5.5 -10.5t2.5 -6.5q5 -18 14 -40q8 -29 17 -84.5t13 -72.5q56 24 127 96.5t71 122.5q0 8 -3 14t-9.5 9t-12.5 5.5t-16 3t-15.5 0.5
h-16h-12.5q-35 0 -101 -8t-66 -22z" />
    <glyph glyph-name="s" unicode="s" horiz-adv-x="494" 
d="M20 88q0 27 27 40.5t71.5 19.5t54.5 10q57 26 98 59q0 1 1 3q0 10 -39.5 27.5t-86.5 37t-86.5 59t-39.5 87.5q0 51 35 100.5t86.5 84.5t110.5 56.5t107 21.5h38q32 -8 54.5 -31t22.5 -55q0 -40 -51 -105.5t-87 -65.5h-2q-15 0 -18 10q0 1 -0.5 7.5t-0.5 7.5q0 26 34 68.5
t34 67.5q-61 0 -117 -35.5t-98 -89.5l-2 -2q-16 -21 -16 -31q0 -4 9 -11q42 -19 143 -72q127 -65 127 -156q0 -51 -28 -89t-72.5 -58t-91.5 -29.5t-94 -9.5q-20 0 -38.5 3t-39 10t-33 22.5t-12.5 37.5z" />
    <glyph glyph-name="t" unicode="t" horiz-adv-x="489" 
d="M110 74v83q0 218 31 393h-99q-11 0 -16.5 11.5t-5.5 23.5q0 36 47.5 65t114 44.5t122 23t85.5 7.5q31 0 55.5 -11t24.5 -39q0 -12 -7 -22t-15.5 -16.5t-24 -12.5t-24.5 -8.5t-26.5 -6.5t-20.5 -5q-35 -12 -84 -23l-4 -4q1 -41 0 -82.5t-6.5 -94.5t-8 -79t-11.5 -94
t-11 -82q-1 -5 -2.5 -24t-3 -30.5t-6 -29.5t-10.5 -28.5t-17 -18.5t-25 -8q-27 0 -37.5 18.5t-14.5 49.5z" />
    <glyph glyph-name="u" unicode="u" horiz-adv-x="555" 
d="M30 314q0 30 6.5 73t19.5 90.5t38.5 80.5t57.5 33q27 0 27 -23q0 -32 -11.5 -97t-11.5 -99q0 -24 3 -48t10.5 -52.5t25.5 -46t43 -17.5q51 0 90 73t39 130v197q0 19 18 32.5t37 13.5q103 0 103 -211q0 -83 -31.5 -167.5t-98.5 -147.5t-154 -63q-96 0 -153.5 75t-57.5 174
z" />
    <glyph glyph-name="v" unicode="v" horiz-adv-x="453" 
d="M20 653q0 41 25 41q24 0 57 -44t51 -80t33 -70q16 -30 52 -112q0 -1 1 -3.5t2 -4.5l4 4q28 88 76 229q25 77 74 77q24 0 31 -15t7 -42q0 -25 -4.5 -53t-12 -62t-10.5 -53q-2 -28 -18 -122q-1 -7 -4.5 -36t-6.5 -47.5t-9 -49t-14.5 -50.5t-20 -40.5t-28 -31t-36.5 -10.5
q-19 0 -33.5 8t-25 26t-15.5 30t-12.5 37t-9.5 30q-4 13 -49 139q-8 22 -38.5 90t-48 120.5t-17.5 94.5z" />
    <glyph glyph-name="w" unicode="w" horiz-adv-x="855" 
d="M359 384l-9 -4q-42 -42 -58 -59q-13 -14 -52 -69.5t-74 -92t-62 -36.5q-24 0 -39 16t-15 40q0 14 9 70q7 46 27 148q5 28 12.5 88t16 107.5t20.5 87.5q6 19 28 19q33 0 43 -64q1 -9 1 -63q0 -35 -9.5 -102.5t-9.5 -101.5v-2q6 5 38.5 35.5t38.5 36.5q3 2 18 16t20.5 19.5
t19.5 16t23.5 15t22.5 9t25 4.5q31 0 54.5 -21t33.5 -44.5t23 -63.5t20 -55q32 -67 81 -112h2q12 0 20.5 32.5t8.5 47.5l1 22v30q0 31 -5 91.5t-5 91.5q0 211 92 211q18 0 30 -7.5t18 -22.5t9 -26.5t5.5 -32.5t3.5 -28q19 -106 19 -157q0 -31 -1.5 -60.5t-6 -71t-12.5 -76
t-22.5 -70.5t-33.5 -61t-48.5 -41t-65.5 -16q-46 0 -84.5 20.5t-64 49.5t-48 74.5t-34.5 80t-25 81.5z" />
    <glyph glyph-name="x" unicode="x" horiz-adv-x="476" 
d="M42 146q0 22 14.5 59t39 87.5t28.5 58.5q1 2 9.5 20t8.5 19v3v1l-11 11q-33 34 -52.5 56.5t-39 60.5t-19.5 73v24q16 28 43 28q25 0 52 -23t57 -60.5t41 -47.5q12 8 23.5 23.5t26 41t17.5 30.5q30 40 81 89q14 10 32 10q41 0 41 -43q0 -23 -10.5 -52t-22 -50t-31.5 -53.5
t-26 -44.5q-27 -43 -27 -54v-5q10 -10 51.5 -43t64.5 -62.5t23 -62.5q0 -5 -1 -8.5t-4 -5.5t-5 -3.5t-7 -2t-7 -0.5h-8.5h-7.5q-13 0 -25.5 2.5t-27 8.5t-23.5 10t-25.5 14.5t-21.5 14.5t-23 17t-20 14h-9q-8 -11 -54 -72t-54 -72l-2 -2t-1 -2q-32 -41 -56 -41
q-15 0 -23.5 9.5t-8.5 24.5z" />
    <glyph glyph-name="y" unicode="y" horiz-adv-x="618" 
d="M152 28q0 19 12 34.5t37.5 33.5t29.5 22t28.5 29t29.5 30q29 29 29 35v5q-30 19 -100 84t-134 143t-64 113q0 18 10.5 30.5t27.5 12.5q20 0 36 -11q15 -11 60.5 -42t69.5 -49t60.5 -46.5t63.5 -56t49 -56.5l5 5q9 16 32.5 85.5t49.5 117t55 47.5q59 0 59 -128
q0 -90 -48 -205.5t-134.5 -205t-178.5 -89.5q-34 0 -59.5 14.5t-25.5 47.5z" />
    <glyph glyph-name="z" unicode="z" horiz-adv-x="677" 
d="M54 77q0 42 23 82.5t72 95.5t57 65q2 2 5.5 6.5t4.5 6.5q27 34 40.5 52t30.5 51.5t17 57.5q-66 0 -128 -18q-48 -14 -78 -25q-3 0 -15.5 -2t-13.5 -2q-21 0 -35 14.5t-14 34.5q0 32 32.5 57.5t80 38.5t88.5 19.5t69 6.5q64 0 103 -28.5t39 -88.5q0 -40 -17.5 -83.5
t-35.5 -71t-51 -71.5q-28 -42 -44 -58q0 -1 -2 -5.5t-2 -5.5h2h2q3 1 9.5 2.5t10.5 2.5q140 35 219 35q134 0 134 -76q0 -17 -10 -31.5t-22.5 -23t-34.5 -16.5t-35 -11t-36.5 -7.5t-27.5 -5.5q-25 -6 -105.5 -28.5t-139.5 -34.5t-107 -12q-37 0 -61 20t-24 57z" />
    <glyph glyph-name="Agrave" unicode="&#xc0;" horiz-adv-x="409" 
d="M51 194v6q0 46 6.5 115.5t21 150t44 136.5t68.5 56q47 0 83 -76.5t52.5 -183t24.5 -188.5t8 -124q0 -75 -47 -75q-18 0 -30.5 13.5t-18 28.5t-11.5 39t-9 31l-81 -28l-4 -4v-12.5t-0.5 -17.5t-2 -18.5t-4 -19t-7 -15t-12 -11.5t-16.5 -4q-65 0 -65 201zM180 475
q-27 -137 -27 -273q38 0 72 14v11q0 34 -6 71.5t-19 95.5t-15 67zM250 736q0 -17 -9 -23q-18 -12 -62 12.5t-58 45.5q-22 32 6 51q11 9 25 6t26 -10t24.5 -20.5t20.5 -23.5t15 -21q2 -2 12 -17z" />
    <glyph glyph-name="Aacute" unicode="&#xc1;" horiz-adv-x="409" 
d="M51 194v6q0 46 6.5 115.5t21 150t44 136.5t68.5 56q47 0 83 -76.5t52.5 -183t24.5 -188.5t8 -124q0 -75 -47 -75q-18 0 -30.5 13.5t-18 28.5t-11.5 39t-9 31l-81 -28l-4 -4v-12.5t-0.5 -17.5t-2 -18.5t-4 -19t-7 -15t-12 -11.5t-16.5 -4q-65 0 -65 201zM180 475
q-27 -137 -27 -273q38 0 72 14v11q0 34 -6 71.5t-19 95.5t-15 67zM112 736q10 15 12 17q7 11 15 21t20.5 23.5t24.5 20.5t26 10t25 -6q28 -19 6 -51q-14 -21 -58 -45.5t-62 -12.5q-9 6 -9 23z" />
    <glyph glyph-name="Acircumflex" unicode="&#xc2;" horiz-adv-x="409" 
d="M51 194v6q0 46 6.5 115.5t21 150t44 136.5t68.5 56q47 0 83 -76.5t52.5 -183t24.5 -188.5t8 -124q0 -75 -47 -75q-18 0 -30.5 13.5t-18 28.5t-11.5 39t-9 31l-81 -28l-4 -4v-12.5t-0.5 -17.5t-2 -18.5t-4 -19t-7 -15t-12 -11.5t-16.5 -4q-65 0 -65 201zM180 475
q-27 -137 -27 -273q38 0 72 14v11q0 34 -6 71.5t-19 95.5t-15 67zM71 725q0 18 17 35q1 2 66 71q13 13 30 13q31 0 77 -39t46 -69q0 -33 -33 -33q-41 0 -100 61h-2q-4 0 -14 -16t-26 -32t-34 -16q-27 0 -27 25z" />
    <glyph glyph-name="Atilde" unicode="&#xc3;" horiz-adv-x="409" 
d="M51 194v6q0 46 6.5 115.5t21 150t44 136.5t68.5 56q47 0 83 -76.5t52.5 -183t24.5 -188.5t8 -124q0 -75 -47 -75q-18 0 -30.5 13.5t-18 28.5t-11.5 39t-9 31l-81 -28l-4 -4v-12.5t-0.5 -17.5t-2 -18.5t-4 -19t-7 -15t-12 -11.5t-16.5 -4q-65 0 -65 201zM180 475
q-27 -137 -27 -273q38 0 72 14v11q0 34 -6 71.5t-19 95.5t-15 67zM140 778q-12 -2 -19 -15.5t-13 -25.5t-19 -12q-29 0 -29 44q0 34 25.5 56.5t60.5 22.5q58 0 94 -64q13 2 26 29.5t30 27.5q15 0 21 -16v-21q0 -41 -22 -70.5t-62 -29.5q-16 0 -30.5 7.5t-24 18.5t-17.5 22
t-13.5 18.5t-7.5 7.5z" />
    <glyph glyph-name="Adieresis" unicode="&#xc4;" horiz-adv-x="409" 
d="M51 194v6q0 46 6.5 115.5t21 150t44 136.5t68.5 56q47 0 83 -76.5t52.5 -183t24.5 -188.5t8 -124q0 -75 -47 -75q-18 0 -30.5 13.5t-18 28.5t-11.5 39t-9 31l-81 -28l-4 -4v-12.5t-0.5 -17.5t-2 -18.5t-4 -19t-7 -15t-12 -11.5t-16.5 -4q-65 0 -65 201zM180 475
q-27 -137 -27 -273q38 0 72 14v11q0 34 -6 71.5t-19 95.5t-15 67zM205 754q0 41 44 41q18 0 31.5 -12.5t13.5 -30.5q0 -20 -13 -32t-32 -12q-21 0 -32.5 12.5t-11.5 33.5zM82 756q0 21 13 33.5t34 12.5q19 0 31 -12t12 -32q0 -19 -12.5 -33t-31.5 -14q-18 0 -32 13.5
t-14 31.5z" />
    <glyph glyph-name="Aring" unicode="&#xc5;" horiz-adv-x="409" 
d="M51 194v6q0 46 6.5 115.5t21 150t44 136.5t68.5 56q47 0 83 -76.5t52.5 -183t24.5 -188.5t8 -124q0 -75 -47 -75q-18 0 -30.5 13.5t-18 28.5t-11.5 39t-9 31l-81 -28l-4 -4v-12.5t-0.5 -17.5t-2 -18.5t-4 -19t-7 -15t-12 -11.5t-16.5 -4q-65 0 -65 201zM180 475
q-27 -137 -27 -273q38 0 72 14v11q0 34 -6 71.5t-19 95.5t-15 67zM103 791q0 40 26 70t67 30q31 0 54 -23t23 -54q0 -38 -29.5 -69t-66.5 -31q-35 0 -54.5 21.5t-19.5 55.5zM176 833q-17 -2 -17.5 -29.5t19.5 -27.5q21 0 29.5 15t-0.5 29.5t-31 12.5z" />
    <glyph glyph-name="AE" unicode="&#xc6;" horiz-adv-x="559" 
d="M31 194v6q0 46 6.5 115.5t21 150t44 136.5t68.5 56q22 0 45 -20q37 25 94 36.5t103 11.5h5q18 0 28 -0.5t22.5 -8t12.5 -21.5q0 -7 -4.5 -12.5t-13 -10t-14.5 -6.5t-15.5 -5t-10.5 -3q-77 -32 -81 -36l-4 -5q-3 -37 -5 -53q0 -6 -1 -20.5t-2 -25.5t-1 -12v-31q4 0 23 0.5
t29.5 -0.5t25 -4.5t22 -13t7.5 -24.5q0 -43 -111 -51q0 -4 -0.5 -20t-0.5 -18v-24l6 -54q11 -46 46 -46q28 0 71.5 36t68.5 36q23 0 23 -31q0 -19 -7.5 -36t-23.5 -32t-31 -26.5t-39 -23.5t-37.5 -18.5t-37 -16t-27.5 -11.5q-19 -8 -34.5 -10t-27 4t-19 12t-15 19.5t-10 20
l-7.5 19.5l-81 -28l-4 -4v-12.5t-0.5 -17.5t-2 -18.5t-4 -19t-7 -15t-12 -11.5t-16.5 -4q-65 0 -65 201zM160 475q-27 -137 -27 -273q38 0 72 14v11q0 34 -6 71.5t-19 95.5t-15 67z" />
    <glyph glyph-name="Egrave" unicode="&#xc8;" horiz-adv-x="406" 
d="M60 327q0 41 11 121t11 120q-6 0 -19 -2t-19 -2q-24 0 -24 31q0 34 26.5 59.5t67.5 38t77.5 18t68.5 5.5h5q18 0 28 -0.5t22.5 -8t12.5 -21.5q0 -7 -4.5 -12.5t-13 -10t-14.5 -6.5t-15.5 -5t-10.5 -3q-77 -32 -81 -36l-4 -5q-3 -37 -5 -53q0 -6 -1 -20.5t-2 -25.5t-1 -12
v-31q4 0 23 0.5t29.5 -0.5t25 -4.5t22 -13t7.5 -24.5q0 -43 -111 -51q0 -4 -0.5 -20t-0.5 -18v-5q0 -119 52 -119q28 0 71.5 36t68.5 36q23 0 23 -31q0 -50 -63.5 -103.5t-115.5 -53.5q-43 0 -73.5 22.5t-45.5 59.5t-21.5 74t-6.5 76zM238 778q0 -17 -9 -23
q-18 -12 -62 12.5t-58 45.5q-22 32 6 51q11 9 25 6t26 -10t24.5 -20.5t20.5 -23.5t15 -21q2 -2 12 -17z" />
    <glyph glyph-name="Eacute" unicode="&#xc9;" horiz-adv-x="406" 
d="M60 327q0 41 11 121t11 120q-6 0 -19 -2t-19 -2q-24 0 -24 31q0 34 26.5 59.5t67.5 38t77.5 18t68.5 5.5h5q18 0 28 -0.5t22.5 -8t12.5 -21.5q0 -7 -4.5 -12.5t-13 -10t-14.5 -6.5t-15.5 -5t-10.5 -3q-77 -32 -81 -36l-4 -5q-3 -37 -5 -53q0 -6 -1 -20.5t-2 -25.5t-1 -12
v-31q4 0 23 0.5t29.5 -0.5t25 -4.5t22 -13t7.5 -24.5q0 -43 -111 -51q0 -4 -0.5 -20t-0.5 -18v-5q0 -119 52 -119q28 0 71.5 36t68.5 36q23 0 23 -31q0 -50 -63.5 -103.5t-115.5 -53.5q-43 0 -73.5 22.5t-45.5 59.5t-21.5 74t-6.5 76zM100 778q10 15 12 17q7 11 15 21
t20.5 23.5t24.5 20.5t26 10t25 -6q28 -19 6 -51q-14 -21 -58 -45.5t-62 -12.5q-9 6 -9 23z" />
    <glyph glyph-name="Ecircumflex" unicode="&#xca;" horiz-adv-x="406" 
d="M60 327q0 41 11 121t11 120q-6 0 -19 -2t-19 -2q-24 0 -24 31q0 34 26.5 59.5t67.5 38t77.5 18t68.5 5.5h5q18 0 28 -0.5t22.5 -8t12.5 -21.5q0 -7 -4.5 -12.5t-13 -10t-14.5 -6.5t-15.5 -5t-10.5 -3q-77 -32 -81 -36l-4 -5q-3 -37 -5 -53q0 -6 -1 -20.5t-2 -25.5t-1 -12
v-31q4 0 23 0.5t29.5 -0.5t25 -4.5t22 -13t7.5 -24.5q0 -43 -111 -51q0 -4 -0.5 -20t-0.5 -18v-5q0 -119 52 -119q28 0 71.5 36t68.5 36q23 0 23 -31q0 -50 -63.5 -103.5t-115.5 -53.5q-43 0 -73.5 22.5t-45.5 59.5t-21.5 74t-6.5 76zM59 767q0 18 17 35q1 2 66 71
q13 13 30 13q31 0 77 -39t46 -69q0 -33 -33 -33q-41 0 -100 61h-2q-4 0 -14 -16t-26 -32t-34 -16q-27 0 -27 25z" />
    <glyph glyph-name="Edieresis" unicode="&#xcb;" horiz-adv-x="406" 
d="M60 327q0 41 11 121t11 120q-6 0 -19 -2t-19 -2q-24 0 -24 31q0 34 26.5 59.5t67.5 38t77.5 18t68.5 5.5h5q18 0 28 -0.5t22.5 -8t12.5 -21.5q0 -7 -4.5 -12.5t-13 -10t-14.5 -6.5t-15.5 -5t-10.5 -3q-77 -32 -81 -36l-4 -5q-3 -37 -5 -53q0 -6 -1 -20.5t-2 -25.5t-1 -12
v-31q4 0 23 0.5t29.5 -0.5t25 -4.5t22 -13t7.5 -24.5q0 -43 -111 -51q0 -4 -0.5 -20t-0.5 -18v-5q0 -119 52 -119q28 0 71.5 36t68.5 36q23 0 23 -31q0 -50 -63.5 -103.5t-115.5 -53.5q-43 0 -73.5 22.5t-45.5 59.5t-21.5 74t-6.5 76zM220 787q0 41 44 41q18 0 31.5 -12.5
t13.5 -30.5q0 -20 -13 -32t-32 -12q-21 0 -32.5 12.5t-11.5 33.5zM97 789q0 21 13 33.5t34 12.5q19 0 31 -12t12 -32q0 -19 -12.5 -33t-31.5 -14q-18 0 -32 13.5t-14 31.5z" />
    <glyph glyph-name="Igrave" unicode="&#xcc;" horiz-adv-x="222" 
d="M51 193q0 38 2 90t8.5 141.5t24.5 148t45 58.5q15 0 24 -13.5t11 -24.5t4 -31q0 -2 0.5 -4t0.5 -3q0 -7 0.5 -41.5t0.5 -40.5v-30t-0.5 -36t-0.5 -17q0 -30 -5 -98q-3 -66 -3 -89q0 -4 -1 -21t-2.5 -33t-4 -37.5t-6.5 -39t-10.5 -33t-16.5 -24.5t-22 -9q-53 0 -49 175v12
zM196 730q0 -17 -9 -23q-18 -12 -62 12.5t-58 45.5q-22 32 6 51q11 9 25 6t26 -10t24.5 -20.5t20.5 -23.5t15 -21q2 -2 12 -17z" />
    <glyph glyph-name="Iacute" unicode="&#xcd;" horiz-adv-x="222" 
d="M51 193q0 38 2 90t8.5 141.5t24.5 148t45 58.5q15 0 24 -13.5t11 -24.5t4 -31q0 -2 0.5 -4t0.5 -3q0 -7 0.5 -41.5t0.5 -40.5v-30t-0.5 -36t-0.5 -17q0 -30 -5 -98q-3 -66 -3 -89q0 -4 -1 -21t-2.5 -33t-4 -37.5t-6.5 -39t-10.5 -33t-16.5 -24.5t-22 -9q-53 0 -49 175v12
zM58 730q10 15 12 17q7 11 15 21t20.5 23.5t24.5 20.5t26 10t25 -6q28 -19 6 -51q-14 -21 -58 -45.5t-62 -12.5q-9 6 -9 23z" />
    <glyph glyph-name="Icircumflex" unicode="&#xce;" horiz-adv-x="222" 
d="M51 193q0 38 2 90t8.5 141.5t24.5 148t45 58.5q15 0 24 -13.5t11 -24.5t4 -31q0 -2 0.5 -4t0.5 -3q0 -7 0.5 -41.5t0.5 -40.5v-30t-0.5 -36t-0.5 -17q0 -30 -5 -98q-3 -66 -3 -89q0 -4 -1 -21t-2.5 -33t-4 -37.5t-6.5 -39t-10.5 -33t-16.5 -24.5t-22 -9q-53 0 -49 175v12
zM17 719q0 18 17 35q1 2 66 71q13 13 30 13q31 0 77 -39t46 -69q0 -33 -33 -33q-41 0 -100 61h-2q-4 0 -14 -16t-26 -32t-34 -16q-27 0 -27 25z" />
    <glyph glyph-name="Idieresis" unicode="&#xcf;" horiz-adv-x="222" 
d="M51 193q0 38 2 90t8.5 141.5t24.5 148t45 58.5q15 0 24 -13.5t11 -24.5t4 -31q0 -2 0.5 -4t0.5 -3q0 -7 0.5 -41.5t0.5 -40.5v-30t-0.5 -36t-0.5 -17q0 -30 -5 -98q-3 -66 -3 -89q0 -4 -1 -21t-2.5 -33t-4 -37.5t-6.5 -39t-10.5 -33t-16.5 -24.5t-22 -9q-53 0 -49 175v12
zM151 748q0 41 44 41q18 0 31.5 -12.5t13.5 -30.5q0 -20 -13 -32t-32 -12q-21 0 -32.5 12.5t-11.5 33.5zM28 750q0 21 13 33.5t34 12.5q19 0 31 -12t12 -32q0 -19 -12.5 -33t-31.5 -14q-18 0 -32 13.5t-14 31.5z" />
    <glyph glyph-name="Ograve" unicode="&#xd2;" horiz-adv-x="523" 
d="M30 223q0 57 20 102q11 29 28 57q4 7 8.5 13.5t6 9t3 7t1.5 10.5q0 11 -5 31t-5 32q0 50 37.5 90t88.5 59.5t100 19.5q86 0 133 -65t47 -155q0 -60 -21 -128t-57.5 -128t-94 -99.5t-123.5 -39.5q-72 0 -119.5 55.5t-47.5 128.5zM135 254q0 -33 16.5 -59.5t47.5 -26.5
q48 0 87.5 47t58.5 105t19 105q0 95 -60 95q-27 0 -53.5 -12t-26.5 -35v-7l1 -7q6 -6 18.5 -18t17 -17t9 -15.5t4.5 -22.5q0 -38 -57 -38q-10 0 -27 5.5t-26 5.5q-14 0 -21.5 -40t-7.5 -65zM362 736q0 -17 -9 -23q-18 -12 -62 12.5t-58 45.5q-22 32 6 51q11 9 25 6t26 -10
t24.5 -20.5t20.5 -23.5t15 -21q2 -2 12 -17z" />
    <glyph glyph-name="Oacute" unicode="&#xd3;" horiz-adv-x="523" 
d="M30 223q0 57 20 102q11 29 28 57q4 7 8.5 13.5t6 9t3 7t1.5 10.5q0 11 -5 31t-5 32q0 50 37.5 90t88.5 59.5t100 19.5q86 0 133 -65t47 -155q0 -60 -21 -128t-57.5 -128t-94 -99.5t-123.5 -39.5q-72 0 -119.5 55.5t-47.5 128.5zM135 254q0 -33 16.5 -59.5t47.5 -26.5
q48 0 87.5 47t58.5 105t19 105q0 95 -60 95q-27 0 -53.5 -12t-26.5 -35v-7l1 -7q6 -6 18.5 -18t17 -17t9 -15.5t4.5 -22.5q0 -38 -57 -38q-10 0 -27 5.5t-26 5.5q-14 0 -21.5 -40t-7.5 -65zM224 736q10 15 12 17q7 11 15 21t20.5 23.5t24.5 20.5t26 10t25 -6q28 -19 6 -51
q-14 -21 -58 -45.5t-62 -12.5q-9 6 -9 23z" />
    <glyph glyph-name="Ocircumflex" unicode="&#xd4;" horiz-adv-x="523" 
d="M30 223q0 57 20 102q11 29 28 57q4 7 8.5 13.5t6 9t3 7t1.5 10.5q0 11 -5 31t-5 32q0 50 37.5 90t88.5 59.5t100 19.5q86 0 133 -65t47 -155q0 -60 -21 -128t-57.5 -128t-94 -99.5t-123.5 -39.5q-72 0 -119.5 55.5t-47.5 128.5zM135 254q0 -33 16.5 -59.5t47.5 -26.5
q48 0 87.5 47t58.5 105t19 105q0 95 -60 95q-27 0 -53.5 -12t-26.5 -35v-7l1 -7q6 -6 18.5 -18t17 -17t9 -15.5t4.5 -22.5q0 -38 -57 -38q-10 0 -27 5.5t-26 5.5q-14 0 -21.5 -40t-7.5 -65zM183 725q0 18 17 35q1 2 66 71q13 13 30 13q31 0 77 -39t46 -69q0 -33 -33 -33
q-41 0 -100 61h-2q-4 0 -14 -16t-26 -32t-34 -16q-27 0 -27 25z" />
    <glyph glyph-name="Otilde" unicode="&#xd5;" horiz-adv-x="523" 
d="M30 223q0 57 20 102q11 29 28 57q4 7 8.5 13.5t6 9t3 7t1.5 10.5q0 11 -5 31t-5 32q0 50 37.5 90t88.5 59.5t100 19.5q86 0 133 -65t47 -155q0 -60 -21 -128t-57.5 -128t-94 -99.5t-123.5 -39.5q-72 0 -119.5 55.5t-47.5 128.5zM135 254q0 -33 16.5 -59.5t47.5 -26.5
q48 0 87.5 47t58.5 105t19 105q0 95 -60 95q-27 0 -53.5 -12t-26.5 -35v-7l1 -7q6 -6 18.5 -18t17 -17t9 -15.5t4.5 -22.5q0 -38 -57 -38q-10 0 -27 5.5t-26 5.5q-14 0 -21.5 -40t-7.5 -65zM252 778q-12 -2 -19 -15.5t-13 -25.5t-19 -12q-29 0 -29 44q0 34 25.5 56.5
t60.5 22.5q58 0 94 -64q13 2 26 29.5t30 27.5q15 0 21 -16v-21q0 -41 -22 -70.5t-62 -29.5q-16 0 -30.5 7.5t-24 18.5t-17.5 22t-13.5 18.5t-7.5 7.5z" />
    <glyph glyph-name="Odieresis" unicode="&#xd6;" horiz-adv-x="523" 
d="M30 223q0 57 20 102q11 29 28 57q4 7 8.5 13.5t6 9t3 7t1.5 10.5q0 11 -5 31t-5 32q0 50 37.5 90t88.5 59.5t100 19.5q86 0 133 -65t47 -155q0 -60 -21 -128t-57.5 -128t-94 -99.5t-123.5 -39.5q-72 0 -119.5 55.5t-47.5 128.5zM135 254q0 -33 16.5 -59.5t47.5 -26.5
q48 0 87.5 47t58.5 105t19 105q0 95 -60 95q-27 0 -53.5 -12t-26.5 -35v-7l1 -7q6 -6 18.5 -18t17 -17t9 -15.5t4.5 -22.5q0 -38 -57 -38q-10 0 -27 5.5t-26 5.5q-14 0 -21.5 -40t-7.5 -65zM317 754q0 41 44 41q18 0 31.5 -12.5t13.5 -30.5q0 -20 -13 -32t-32 -12
q-21 0 -32.5 12.5t-11.5 33.5zM194 756q0 21 13 33.5t34 12.5q19 0 31 -12t12 -32q0 -19 -12.5 -33t-31.5 -14q-18 0 -32 13.5t-14 31.5z" />
    <glyph glyph-name="Oslash" unicode="&#xd8;" horiz-adv-x="523" 
d="M140 20q0 2 -0.5 14.5t-0.5 15.5q-49 20 -79 68.5t-30 104.5q0 57 20 102q11 29 28 57q4 7 8.5 13.5t6 9t3 7t1.5 10.5q0 11 -5 31t-5 32q0 72 71.5 119.5t149.5 49.5q22 55 52 55q18 0 23 -14q0 -1 0.5 -11.5t0.5 -12.5q0 -16 -3 -31q54 -23 83 -80t29 -126
q0 -82 -34.5 -171.5t-104.5 -156.5t-156 -67q-11 -36 -35 -36q-18 0 -23 17zM364 425q0 56 -21 79q-12 -39 -49.5 -153t-56.5 -175q55 24 91 104t36 145zM135 254q0 -40 19 -64q12 61 46 160l-36 9q-14 0 -21.5 -40t-7.5 -65zM224 473v-7l1 -7l3.5 -3.5t4 -4.5t3.5 -3
q13 35 23 64q-35 -13 -35 -39z" />
    <glyph glyph-name="Ugrave" unicode="&#xd9;" horiz-adv-x="575" 
d="M30 270q0 38 16 114t49 149t71 73q12 0 19.5 -8t7.5 -21q0 -40 -10 -121t-10 -123q0 -29 1.5 -45t7.5 -41.5t22.5 -38t42.5 -12.5q34 0 59 21.5t37.5 55t18.5 66t6 62.5q0 22 -2 65t-2 66v31q8 34 56 34q35 0 61 -25t39 -63.5t19 -74.5t6 -69q0 -129 -87.5 -232
t-215.5 -103q-98 0 -155 69.5t-57 170.5zM342 696q0 -17 -9 -23q-18 -12 -62 12.5t-58 45.5q-22 32 6 51q11 9 25 6t26 -10t24.5 -20.5t20.5 -23.5t15 -21q2 -2 12 -17z" />
    <glyph glyph-name="Uacute" unicode="&#xda;" horiz-adv-x="575" 
d="M30 270q0 38 16 114t49 149t71 73q12 0 19.5 -8t7.5 -21q0 -40 -10 -121t-10 -123q0 -29 1.5 -45t7.5 -41.5t22.5 -38t42.5 -12.5q34 0 59 21.5t37.5 55t18.5 66t6 62.5q0 22 -2 65t-2 66v31q8 34 56 34q35 0 61 -25t39 -63.5t19 -74.5t6 -69q0 -129 -87.5 -232
t-215.5 -103q-98 0 -155 69.5t-57 170.5zM204 696q10 15 12 17q7 11 15 21t20.5 23.5t24.5 20.5t26 10t25 -6q28 -19 6 -51q-14 -21 -58 -45.5t-62 -12.5q-9 6 -9 23z" />
    <glyph glyph-name="Ucircumflex" unicode="&#xdb;" horiz-adv-x="575" 
d="M30 270q0 38 16 114t49 149t71 73q12 0 19.5 -8t7.5 -21q0 -40 -10 -121t-10 -123q0 -29 1.5 -45t7.5 -41.5t22.5 -38t42.5 -12.5q34 0 59 21.5t37.5 55t18.5 66t6 62.5q0 22 -2 65t-2 66v31q8 34 56 34q35 0 61 -25t39 -63.5t19 -74.5t6 -69q0 -129 -87.5 -232
t-215.5 -103q-98 0 -155 69.5t-57 170.5zM163 685q0 18 17 35q1 2 66 71q13 13 30 13q31 0 77 -39t46 -69q0 -33 -33 -33q-41 0 -100 61h-2q-4 0 -14 -16t-26 -32t-34 -16q-27 0 -27 25z" />
    <glyph glyph-name="Udieresis" unicode="&#xdc;" horiz-adv-x="575" 
d="M30 270q0 38 16 114t49 149t71 73q12 0 19.5 -8t7.5 -21q0 -40 -10 -121t-10 -123q0 -29 1.5 -45t7.5 -41.5t22.5 -38t42.5 -12.5q34 0 59 21.5t37.5 55t18.5 66t6 62.5q0 22 -2 65t-2 66v31q8 34 56 34q35 0 61 -25t39 -63.5t19 -74.5t6 -69q0 -129 -87.5 -232
t-215.5 -103q-98 0 -155 69.5t-57 170.5zM297 714q0 41 44 41q18 0 31.5 -12.5t13.5 -30.5q0 -20 -13 -32t-32 -12q-21 0 -32.5 12.5t-11.5 33.5zM174 716q0 21 13 33.5t34 12.5q19 0 31 -12t12 -32q0 -19 -12.5 -33t-31.5 -14q-18 0 -32 13.5t-14 31.5z" />
    <glyph glyph-name="agrave" unicode="&#xe0;" 
d="M331 209h-5q-94 -34 -174 -38q-8 -11 -14 -38t-16 -43.5t-32 -16.5q-18 0 -27.5 12t-11 24t-1.5 32q0 30 4 60t13.5 63.5t17 57.5t24 61.5t24 55t28 59.5t25.5 53q34 75 40 84q3 7 9.5 24.5t11.5 27.5t13 22t20 17.5t27 5.5q40 0 59 -44q13 -30 24 -71t15.5 -68t12 -79.5
t9.5 -67.5l5 -27q31 -190 31 -282v-28q-8 -27 -36 -27q-55 0 -96 171zM282 521q-4 -3 -8 -13q-64 -156 -88 -232l4 -1q25 0 72 10.5t47 23.5q0 14 -4 43t-4 33zM370 808q0 -17 -9 -23q-18 -12 -62 12.5t-58 45.5q-22 32 6 51q11 9 25 6t26 -10t24.5 -20.5t20.5 -23.5t15 -21
q2 -2 12 -17z" />
    <glyph glyph-name="aacute" unicode="&#xe1;" 
d="M331 209h-5q-94 -34 -174 -38q-8 -11 -14 -38t-16 -43.5t-32 -16.5q-18 0 -27.5 12t-11 24t-1.5 32q0 30 4 60t13.5 63.5t17 57.5t24 61.5t24 55t28 59.5t25.5 53q34 75 40 84q3 7 9.5 24.5t11.5 27.5t13 22t20 17.5t27 5.5q40 0 59 -44q13 -30 24 -71t15.5 -68t12 -79.5
t9.5 -67.5l5 -27q31 -190 31 -282v-28q-8 -27 -36 -27q-55 0 -96 171zM282 521q-4 -3 -8 -13q-64 -156 -88 -232l4 -1q25 0 72 10.5t47 23.5q0 14 -4 43t-4 33zM232 808q10 15 12 17q7 11 15 21t20.5 23.5t24.5 20.5t26 10t25 -6q28 -19 6 -51q-14 -21 -58 -45.5t-62 -12.5
q-9 6 -9 23z" />
    <glyph glyph-name="acircumflex" unicode="&#xe2;" 
d="M331 209h-5q-94 -34 -174 -38q-8 -11 -14 -38t-16 -43.5t-32 -16.5q-18 0 -27.5 12t-11 24t-1.5 32q0 30 4 60t13.5 63.5t17 57.5t24 61.5t24 55t28 59.5t25.5 53q34 75 40 84q3 7 9.5 24.5t11.5 27.5t13 22t20 17.5t27 5.5q40 0 59 -44q13 -30 24 -71t15.5 -68t12 -79.5
t9.5 -67.5l5 -27q31 -190 31 -282v-28q-8 -27 -36 -27q-55 0 -96 171zM282 521q-4 -3 -8 -13q-64 -156 -88 -232l4 -1q25 0 72 10.5t47 23.5q0 14 -4 43t-4 33zM191 797q0 18 17 35q1 2 66 71q13 13 30 13q31 0 77 -39t46 -69q0 -33 -33 -33q-41 0 -100 61h-2q-4 0 -14 -16
t-26 -32t-34 -16q-27 0 -27 25z" />
    <glyph glyph-name="atilde" unicode="&#xe3;" 
d="M331 209h-5q-94 -34 -174 -38q-8 -11 -14 -38t-16 -43.5t-32 -16.5q-18 0 -27.5 12t-11 24t-1.5 32q0 30 4 60t13.5 63.5t17 57.5t24 61.5t24 55t28 59.5t25.5 53q34 75 40 84q3 7 9.5 24.5t11.5 27.5t13 22t20 17.5t27 5.5q40 0 59 -44q13 -30 24 -71t15.5 -68t12 -79.5
t9.5 -67.5l5 -27q31 -190 31 -282v-28q-8 -27 -36 -27q-55 0 -96 171zM282 521q-4 -3 -8 -13q-64 -156 -88 -232l4 -1q25 0 72 10.5t47 23.5q0 14 -4 43t-4 33zM260 850q-12 -2 -19 -15.5t-13 -25.5t-19 -12q-29 0 -29 44q0 34 25.5 56.5t60.5 22.5q58 0 94 -64
q13 2 26 29.5t30 27.5q15 0 21 -16v-21q0 -41 -22 -70.5t-62 -29.5q-16 0 -30.5 7.5t-24 18.5t-17.5 22t-13.5 18.5t-7.5 7.5z" />
    <glyph glyph-name="adieresis" unicode="&#xe4;" 
d="M331 209h-5q-94 -34 -174 -38q-8 -11 -14 -38t-16 -43.5t-32 -16.5q-18 0 -27.5 12t-11 24t-1.5 32q0 30 4 60t13.5 63.5t17 57.5t24 61.5t24 55t28 59.5t25.5 53q34 75 40 84q3 7 9.5 24.5t11.5 27.5t13 22t20 17.5t27 5.5q40 0 59 -44q13 -30 24 -71t15.5 -68t12 -79.5
t9.5 -67.5l5 -27q31 -190 31 -282v-28q-8 -27 -36 -27q-55 0 -96 171zM282 521q-4 -3 -8 -13q-64 -156 -88 -232l4 -1q25 0 72 10.5t47 23.5q0 14 -4 43t-4 33zM325 826q0 41 44 41q18 0 31.5 -12.5t13.5 -30.5q0 -20 -13 -32t-32 -12q-21 0 -32.5 12.5t-11.5 33.5zM202 828
q0 21 13 33.5t34 12.5q19 0 31 -12t12 -32q0 -19 -12.5 -33t-31.5 -14q-18 0 -32 13.5t-14 31.5z" />
    <glyph glyph-name="aring" unicode="&#xe5;" 
d="M331 209h-5q-94 -34 -174 -38q-8 -11 -14 -38t-16 -43.5t-32 -16.5q-18 0 -27.5 12t-11 24t-1.5 32q0 30 4 60t13.5 63.5t17 57.5t24 61.5t24 55t28 59.5t25.5 53q34 75 40 84q3 7 9.5 24.5t11.5 27.5t13 22t20 17.5t27 5.5q40 0 59 -44q13 -30 24 -71t15.5 -68t12 -79.5
t9.5 -67.5l5 -27q31 -190 31 -282v-28q-8 -27 -36 -27q-55 0 -96 171zM282 521q-4 -3 -8 -13q-64 -156 -88 -232l4 -1q25 0 72 10.5t47 23.5q0 14 -4 43t-4 33zM223 863q0 40 26 70t67 30q31 0 54 -23t23 -54q0 -38 -29.5 -69t-66.5 -31q-35 0 -54.5 21.5t-19.5 55.5z
M296 905q-17 -2 -17.5 -29.5t19.5 -27.5q21 0 29.5 15t-0.5 29.5t-31 12.5z" />
    <glyph glyph-name="ae" unicode="&#xe6;" horiz-adv-x="707" 
d="M315 181q0 1 -0.5 6t-0.5 8l-3 14h-5q-94 -34 -174 -38q-8 -11 -14 -38t-16 -43.5t-32 -16.5q-18 0 -27.5 12t-11 24t-1.5 32q0 30 4 60t13.5 63.5t17 57.5t24 61.5t24 55t28 59.5t25.5 53q34 75 40 84q3 7 9.5 24.5t11.5 27.5t13 22t20 17.5t27 5.5q40 0 59 -44
q15 -38 23 -68q63 49 199 49q106 0 106 -45q0 -14 -8 -17q-10 -4 -20.5 -5t-25 -0.5t-21.5 0.5q-34 -1 -105 -24t-70 -44l5 -107h4q21 0 62 9t61 9q70 0 70 -44q0 -29 -40 -46t-93.5 -28.5t-68.5 -22.5v-3q14 -97 18 -162q4 -2 7 -2q39 0 108 42.5t109 42.5q1 0 8 -0.5
t9 -0.5q4 -5 4 -13q0 -54 -98 -113t-156 -59q-16 0 -24 2h-2q-13 0 -25 9q-60 31 -67 134zM262 521q-4 -3 -8 -13q-64 -156 -88 -232l4 -1q25 0 72 10.5t47 23.5q0 14 -4 43t-4 33z" />
    <glyph glyph-name="egrave" unicode="&#xe8;" horiz-adv-x="426" 
d="M34 161q-1 15 -1 97q0 36 7 107t7 106q0 1 -13.5 10t-13.5 18q0 44 62 96q62 54 205 54q106 0 106 -45q0 -14 -8 -17q-10 -4 -20.5 -5t-25 -0.5t-21.5 0.5q-34 -1 -105 -24t-70 -44l5 -107h4q20 0 61 9t62 9q70 0 70 -44q0 -29 -40 -46t-93.5 -28.5t-68.5 -22.5v-46v-3
q0 -118 25 -118q39 0 108 42.5t109 42.5q1 0 8 -0.5t9 -0.5q4 -5 4 -13q0 -54 -98 -113t-156 -59q-106 0 -118 145zM262 716q0 -17 -9 -23q-18 -12 -62 12.5t-58 45.5q-22 32 6 51q11 9 25 6t26 -10t24.5 -20.5t20.5 -23.5t15 -21q2 -2 12 -17z" />
    <glyph glyph-name="eacute" unicode="&#xe9;" horiz-adv-x="426" 
d="M34 161q-1 15 -1 97q0 36 7 107t7 106q0 1 -13.5 10t-13.5 18q0 44 62 96q62 54 205 54q106 0 106 -45q0 -14 -8 -17q-10 -4 -20.5 -5t-25 -0.5t-21.5 0.5q-34 -1 -105 -24t-70 -44l5 -107h4q20 0 61 9t62 9q70 0 70 -44q0 -29 -40 -46t-93.5 -28.5t-68.5 -22.5v-46v-3
q0 -118 25 -118q39 0 108 42.5t109 42.5q1 0 8 -0.5t9 -0.5q4 -5 4 -13q0 -54 -98 -113t-156 -59q-106 0 -118 145zM124 716q10 15 12 17q7 11 15 21t20.5 23.5t24.5 20.5t26 10t25 -6q28 -19 6 -51q-14 -21 -58 -45.5t-62 -12.5q-9 6 -9 23z" />
    <glyph glyph-name="ecircumflex" unicode="&#xea;" horiz-adv-x="426" 
d="M34 161q-1 15 -1 97q0 36 7 107t7 106q0 1 -13.5 10t-13.5 18q0 44 62 96q62 54 205 54q106 0 106 -45q0 -14 -8 -17q-10 -4 -20.5 -5t-25 -0.5t-21.5 0.5q-34 -1 -105 -24t-70 -44l5 -107h4q20 0 61 9t62 9q70 0 70 -44q0 -29 -40 -46t-93.5 -28.5t-68.5 -22.5v-46v-3
q0 -118 25 -118q39 0 108 42.5t109 42.5q1 0 8 -0.5t9 -0.5q4 -5 4 -13q0 -54 -98 -113t-156 -59q-106 0 -118 145zM83 705q0 18 17 35q1 2 66 71q13 13 30 13q31 0 77 -39t46 -69q0 -33 -33 -33q-41 0 -100 61h-2q-4 0 -14 -16t-26 -32t-34 -16q-27 0 -27 25z" />
    <glyph glyph-name="edieresis" unicode="&#xeb;" horiz-adv-x="426" 
d="M34 161q-1 15 -1 97q0 36 7 107t7 106q0 1 -13.5 10t-13.5 18q0 44 62 96q62 54 205 54q106 0 106 -45q0 -14 -8 -17q-10 -4 -20.5 -5t-25 -0.5t-21.5 0.5q-34 -1 -105 -24t-70 -44l5 -107h4q20 0 61 9t62 9q70 0 70 -44q0 -29 -40 -46t-93.5 -28.5t-68.5 -22.5v-46v-3
q0 -118 25 -118q39 0 108 42.5t109 42.5q1 0 8 -0.5t9 -0.5q4 -5 4 -13q0 -54 -98 -113t-156 -59q-106 0 -118 145zM230 818q0 41 44 41q18 0 31.5 -12.5t13.5 -30.5q0 -20 -13 -32t-32 -12q-21 0 -32.5 12.5t-11.5 33.5zM107 820q0 21 13 33.5t34 12.5q19 0 31 -12t12 -32
q0 -19 -12.5 -33t-31.5 -14q-18 0 -32 13.5t-14 31.5z" />
    <glyph glyph-name="igrave" unicode="&#xec;" horiz-adv-x="262" 
d="M50 56v59v60l1 12q1 12 2.5 27.5t1.5 22.5q0 9 1 33l2 25q0 1 0.5 3t0.5 3q30 323 106 323q23 0 34.5 -26t11.5 -52l1 -12v-25v-21q0 -102 -30 -304q0 -3 -1 -9.5t-2 -10.5q-1 -6 -2.5 -17.5t-2.5 -16.5q-1 -4 -3.5 -24t-4.5 -30.5t-7.5 -28.5t-12 -27.5t-18 -17.5
t-25.5 -8q-43 0 -53 62zM228 714q0 -17 -9 -23q-18 -12 -62 12.5t-58 45.5q-22 32 6 51q11 9 25 6t26 -10t24.5 -20.5t20.5 -23.5t15 -21q2 -2 12 -17z" />
    <glyph glyph-name="iacute" unicode="&#xed;" horiz-adv-x="262" 
d="M50 56v59v60l1 12q1 12 2.5 27.5t1.5 22.5q0 9 1 33l2 25q0 1 0.5 3t0.5 3q30 323 106 323q23 0 34.5 -26t11.5 -52l1 -12v-25v-21q0 -102 -30 -304q0 -3 -1 -9.5t-2 -10.5q-1 -6 -2.5 -17.5t-2.5 -16.5q-1 -4 -3.5 -24t-4.5 -30.5t-7.5 -28.5t-12 -27.5t-18 -17.5
t-25.5 -8q-43 0 -53 62zM90 714q10 15 12 17q7 11 15 21t20.5 23.5t24.5 20.5t26 10t25 -6q28 -19 6 -51q-14 -21 -58 -45.5t-62 -12.5q-9 6 -9 23z" />
    <glyph glyph-name="icircumflex" unicode="&#xee;" horiz-adv-x="262" 
d="M50 56v59v60l1 12q1 12 2.5 27.5t1.5 22.5q0 9 1 33l2 25q0 1 0.5 3t0.5 3q30 323 106 323q23 0 34.5 -26t11.5 -52l1 -12v-25v-21q0 -102 -30 -304q0 -3 -1 -9.5t-2 -10.5q-1 -6 -2.5 -17.5t-2.5 -16.5q-1 -4 -3.5 -24t-4.5 -30.5t-7.5 -28.5t-12 -27.5t-18 -17.5
t-25.5 -8q-43 0 -53 62zM49 703q0 18 17 35q1 2 66 71q13 13 30 13q31 0 77 -39t46 -69q0 -33 -33 -33q-41 0 -100 61h-2q-4 0 -14 -16t-26 -32t-34 -16q-27 0 -27 25z" />
    <glyph glyph-name="idieresis" unicode="&#xef;" horiz-adv-x="262" 
d="M50 56v59v60l1 12q1 12 2.5 27.5t1.5 22.5q0 9 1 33l2 25q0 1 0.5 3t0.5 3q30 323 106 323q23 0 34.5 -26t11.5 -52l1 -12v-25v-21q0 -102 -30 -304q0 -3 -1 -9.5t-2 -10.5q-1 -6 -2.5 -17.5t-2.5 -16.5q-1 -4 -3.5 -24t-4.5 -30.5t-7.5 -28.5t-12 -27.5t-18 -17.5
t-25.5 -8q-43 0 -53 62zM183 732q0 41 44 41q18 0 31.5 -12.5t13.5 -30.5q0 -20 -13 -32t-32 -12q-21 0 -32.5 12.5t-11.5 33.5zM60 734q0 21 13 33.5t34 12.5q19 0 31 -12t12 -32q0 -19 -12.5 -33t-31.5 -14q-18 0 -32 13.5t-14 31.5z" />
    <glyph glyph-name="ograve" unicode="&#xf2;" horiz-adv-x="605" 
d="M30 313q0 124 88 200q-5 95 37 149t135 54q116 0 200.5 -67t84.5 -181q0 -88 -47.5 -176t-129 -145.5t-170.5 -57.5q-91 0 -144.5 65.5t-53.5 158.5zM129 307q16 -75 62 -94q2 0 12.5 -0.5t13.5 -0.5q78 0 135.5 79.5t57.5 160.5v32q-10 39 -49 59t-84 20t-45 -43
q0 -9 2.5 -26.5t2.5 -25.5q0 -41 -31 -41q-20 0 -56 28q-21 -31 -21 -106v-42zM378 788q0 -17 -9 -23q-18 -12 -62 12.5t-58 45.5q-22 32 6 51q11 9 25 6t26 -10t24.5 -20.5t20.5 -23.5t15 -21q2 -2 12 -17z" />
    <glyph glyph-name="oacute" unicode="&#xf3;" horiz-adv-x="605" 
d="M30 313q0 124 88 200q-5 95 37 149t135 54q116 0 200.5 -67t84.5 -181q0 -88 -47.5 -176t-129 -145.5t-170.5 -57.5q-91 0 -144.5 65.5t-53.5 158.5zM129 307q16 -75 62 -94q2 0 12.5 -0.5t13.5 -0.5q78 0 135.5 79.5t57.5 160.5v32q-10 39 -49 59t-84 20t-45 -43
q0 -9 2.5 -26.5t2.5 -25.5q0 -41 -31 -41q-20 0 -56 28q-21 -31 -21 -106v-42zM240 788q10 15 12 17q7 11 15 21t20.5 23.5t24.5 20.5t26 10t25 -6q28 -19 6 -51q-14 -21 -58 -45.5t-62 -12.5q-9 6 -9 23z" />
    <glyph glyph-name="ocircumflex" unicode="&#xf4;" horiz-adv-x="605" 
d="M30 313q0 124 88 200q-5 95 37 149t135 54q116 0 200.5 -67t84.5 -181q0 -88 -47.5 -176t-129 -145.5t-170.5 -57.5q-91 0 -144.5 65.5t-53.5 158.5zM129 307q16 -75 62 -94q2 0 12.5 -0.5t13.5 -0.5q78 0 135.5 79.5t57.5 160.5v32q-10 39 -49 59t-84 20t-45 -43
q0 -9 2.5 -26.5t2.5 -25.5q0 -41 -31 -41q-20 0 -56 28q-21 -31 -21 -106v-42zM199 777q0 18 17 35q1 2 66 71q13 13 30 13q31 0 77 -39t46 -69q0 -33 -33 -33q-41 0 -100 61h-2q-4 0 -14 -16t-26 -32t-34 -16q-27 0 -27 25z" />
    <glyph glyph-name="otilde" unicode="&#xf5;" horiz-adv-x="605" 
d="M30 313q0 124 88 200q-5 95 37 149t135 54q116 0 200.5 -67t84.5 -181q0 -88 -47.5 -176t-129 -145.5t-170.5 -57.5q-91 0 -144.5 65.5t-53.5 158.5zM129 307q16 -75 62 -94q2 0 12.5 -0.5t13.5 -0.5q78 0 135.5 79.5t57.5 160.5v32q-10 39 -49 59t-84 20t-45 -43
q0 -9 2.5 -26.5t2.5 -25.5q0 -41 -31 -41q-20 0 -56 28q-21 -31 -21 -106v-42zM268 830q-12 -2 -19 -15.5t-13 -25.5t-19 -12q-29 0 -29 44q0 34 25.5 56.5t60.5 22.5q58 0 94 -64q13 2 26 29.5t30 27.5q15 0 21 -16v-21q0 -41 -22 -70.5t-62 -29.5q-16 0 -30.5 7.5
t-24 18.5t-17.5 22t-13.5 18.5t-7.5 7.5z" />
    <glyph glyph-name="odieresis" unicode="&#xf6;" horiz-adv-x="605" 
d="M30 313q0 124 88 200q-5 95 37 149t135 54q116 0 200.5 -67t84.5 -181q0 -88 -47.5 -176t-129 -145.5t-170.5 -57.5q-91 0 -144.5 65.5t-53.5 158.5zM129 307q16 -75 62 -94q2 0 12.5 -0.5t13.5 -0.5q78 0 135.5 79.5t57.5 160.5v32q-10 39 -49 59t-84 20t-45 -43
q0 -9 2.5 -26.5t2.5 -25.5q0 -41 -31 -41q-20 0 -56 28q-21 -31 -21 -106v-42zM333 806q0 41 44 41q18 0 31.5 -12.5t13.5 -30.5q0 -20 -13 -32t-32 -12q-21 0 -32.5 12.5t-11.5 33.5zM210 808q0 21 13 33.5t34 12.5q19 0 31 -12t12 -32q0 -19 -12.5 -33t-31.5 -14
q-18 0 -32 13.5t-14 31.5z" />
    <glyph glyph-name="oslash" unicode="&#xf8;" horiz-adv-x="605" 
d="M183 80l-1 5v9q-71 16 -111.5 77.5t-40.5 141.5q0 124 88 200q-5 95 37 149t135 54q27 0 60 -5q22 58 53 58q18 0 23 -14q0 -1 0.5 -12t0.5 -12q0 -14 -4 -42q69 -29 110.5 -86t41.5 -135q0 -86 -46 -172.5t-125.5 -145t-166.5 -61.5q-11 -26 -31 -26q-18 0 -23 17z
M129 307q16 -75 61 -94q5 34 13.5 68.5t22 76t22 65t27.5 74t24 65.5q-8 1 -22 1q-45 0 -45 -43q0 -9 2.5 -26.5t2.5 -25.5q0 -41 -31 -41q-20 0 -56 28q-21 -31 -21 -106v-42zM410 484q-9 29 -34 48q-79 -243 -98 -303v-1l-1 -2q57 27 95 95t38 131v32z" />
    <glyph glyph-name="ugrave" unicode="&#xf9;" horiz-adv-x="555" 
d="M30 314q0 30 6.5 73t19.5 90.5t38.5 80.5t57.5 33q27 0 27 -23q0 -32 -11.5 -97t-11.5 -99q0 -24 3 -48t10.5 -52.5t25.5 -46t43 -17.5q51 0 90 73t39 130v197q0 19 18 32.5t37 13.5q103 0 103 -211q0 -83 -31.5 -167.5t-98.5 -147.5t-154 -63q-96 0 -153.5 75t-57.5 174
zM322 704q0 -17 -9 -23q-18 -12 -62 12.5t-58 45.5q-22 32 6 51q11 9 25 6t26 -10t24.5 -20.5t20.5 -23.5t15 -21q2 -2 12 -17z" />
    <glyph glyph-name="uacute" unicode="&#xfa;" horiz-adv-x="555" 
d="M30 314q0 30 6.5 73t19.5 90.5t38.5 80.5t57.5 33q27 0 27 -23q0 -32 -11.5 -97t-11.5 -99q0 -24 3 -48t10.5 -52.5t25.5 -46t43 -17.5q51 0 90 73t39 130v197q0 19 18 32.5t37 13.5q103 0 103 -211q0 -83 -31.5 -167.5t-98.5 -147.5t-154 -63q-96 0 -153.5 75t-57.5 174
zM184 704q10 15 12 17q7 11 15 21t20.5 23.5t24.5 20.5t26 10t25 -6q28 -19 6 -51q-14 -21 -58 -45.5t-62 -12.5q-9 6 -9 23z" />
    <glyph glyph-name="ucircumflex" unicode="&#xfb;" horiz-adv-x="555" 
d="M30 314q0 30 6.5 73t19.5 90.5t38.5 80.5t57.5 33q27 0 27 -23q0 -32 -11.5 -97t-11.5 -99q0 -24 3 -48t10.5 -52.5t25.5 -46t43 -17.5q51 0 90 73t39 130v197q0 19 18 32.5t37 13.5q103 0 103 -211q0 -83 -31.5 -167.5t-98.5 -147.5t-154 -63q-96 0 -153.5 75t-57.5 174
zM143 693q0 18 17 35q1 2 66 71q13 13 30 13q31 0 77 -39t46 -69q0 -33 -33 -33q-41 0 -100 61h-2q-4 0 -14 -16t-26 -32t-34 -16q-27 0 -27 25z" />
    <glyph glyph-name="udieresis" unicode="&#xfc;" horiz-adv-x="555" 
d="M30 314q0 30 6.5 73t19.5 90.5t38.5 80.5t57.5 33q27 0 27 -23q0 -32 -11.5 -97t-11.5 -99q0 -24 3 -48t10.5 -52.5t25.5 -46t43 -17.5q51 0 90 73t39 130v197q0 19 18 32.5t37 13.5q103 0 103 -211q0 -83 -31.5 -167.5t-98.5 -147.5t-154 -63q-96 0 -153.5 75t-57.5 174
zM277 722q0 41 44 41q18 0 31.5 -12.5t13.5 -30.5q0 -20 -13 -32t-32 -12q-21 0 -32.5 12.5t-11.5 33.5zM154 724q0 21 13 33.5t34 12.5q19 0 31 -12t12 -32q0 -19 -12.5 -33t-31.5 -14q-18 0 -32 13.5t-14 31.5z" />
    <glyph glyph-name="Euro" unicode="&#x20ac;" 
d="M76 221q-4 3 -22 10.5t-26 15.5t-8 22q0 17 9 25t19 9.5t19 15t9 39.5v2l-29 28v9q0 8 3 14.5t9.5 11.5t11 7.5t15 7t13.5 6.5q87 171 219 171q45 0 86.5 -17.5t41.5 -56.5h-16q-42 0 -62.5 -1.5t-50.5 -13t-51 -35.5q-1 -1 -9 -10t-13.5 -17.5t-5.5 -13.5q0 -4 8 -6
l60 -4q1 0 3 -0.5t4 -0.5q85 -7 85 -39q0 -25 -48 -34.5t-95.5 -10.5t-47.5 -6v-36q0 -4 15 -5.5t33 -3t33 -10t15 -23.5q0 -19 -22.5 -28t-44.5 -12t-22 -7q0 -31 32.5 -56.5t63.5 -25.5q29 0 80.5 22t78.5 22h15q9 -6 9 -20q0 -39 -42.5 -73t-92.5 -50t-87 -16
q-75 0 -124.5 57t-70.5 137z" />
    </font>
</defs>
</svg>
